<svg width="34" height="34" viewBox="0 0 34 34" fill="none" xmlns="http://www.w3.org/2000/svg">
<path d="M4.24984 12.75C5.81464 12.75 7.08317 11.4815 7.08317 9.91671C7.08317 8.3519 5.81464 7.08337 4.24984 7.08337C2.68503 7.08337 1.4165 8.3519 1.4165 9.91671C1.4165 11.4815 2.68503 12.75 4.24984 12.75Z" stroke="#00B4E2" stroke-width="1.5" stroke-miterlimit="10" stroke-linecap="round" stroke-linejoin="round"/>
<path d="M29.7498 12.75C31.3146 12.75 32.5832 11.4815 32.5832 9.91671C32.5832 8.3519 31.3146 7.08337 29.7498 7.08337C28.185 7.08337 26.9165 8.3519 26.9165 9.91671C26.9165 11.4815 28.185 12.75 29.7498 12.75Z" stroke="#00B4E2" stroke-width="1.5" stroke-miterlimit="10" stroke-linecap="round" stroke-linejoin="round"/>
<path d="M26.9167 9.91669H21.25" stroke="#00B4E2" stroke-width="1.5" stroke-miterlimit="10" stroke-linecap="round" stroke-linejoin="round"/>
<path d="M12.7497 9.91669H7.08301" stroke="#00B4E2" stroke-width="1.5" stroke-miterlimit="10" stroke-linecap="round" stroke-linejoin="round"/>
<path d="M10.6248 23.375V26.2083C10.6248 27.0725 10.1007 27.8233 9.364 28.135C9.09484 28.2625 8.8115 28.3333 8.49984 28.3333H5.6665C4.49067 28.3333 3.5415 27.3842 3.5415 26.2083V23.375C3.5415 22.1992 4.49067 21.25 5.6665 21.25H8.49984C9.67567 21.25 10.6248 22.1992 10.6248 23.375Z" stroke="#00B4E2" stroke-width="1.5" stroke-miterlimit="10" stroke-linecap="round" stroke-linejoin="round"/>
<path d="M30.4583 23.375V26.2083C30.4583 27.3842 29.5092 28.3333 28.3333 28.3333H25.5C25.1883 28.3333 24.905 28.2625 24.6358 28.135C23.8992 27.8233 23.375 27.0725 23.375 26.2083V23.375C23.375 22.1992 24.3242 21.25 25.5 21.25H28.3333C29.5092 21.25 30.4583 22.1992 30.4583 23.375Z" stroke="#00B4E2" stroke-width="1.5" stroke-miterlimit="10" stroke-linecap="round" stroke-linejoin="round"/>
<path d="M21.25 7.79169V12.0417C21.25 13.2034 20.2867 14.1667 19.125 14.1667H14.875C13.7133 14.1667 12.75 13.2034 12.75 12.0417V7.79169C12.75 6.63002 13.7133 5.66669 14.875 5.66669H19.125C20.2867 5.66669 21.25 6.63002 21.25 7.79169Z" stroke="#00B4E2" stroke-width="1.5" stroke-miterlimit="10" stroke-linecap="round" stroke-linejoin="round"/>
<path d="M21.25 10.9508C24.6075 12.6508 26.9167 16.3058 26.9167 20.5417C26.9167 20.7825 26.9025 21.0092 26.8742 21.25" stroke="#00B4E2" stroke-width="1.5" stroke-miterlimit="10" stroke-linecap="round" stroke-linejoin="round"/>
<path d="M7.12551 21.25C7.09717 21.0092 7.08301 20.7825 7.08301 20.5417C7.08301 16.3058 9.39217 12.6508 12.7497 10.9508" stroke="#00B4E2" stroke-width="1.5" stroke-miterlimit="10" stroke-linecap="round" stroke-linejoin="round"/>
</svg>
