<svg width="57" height="112" viewBox="0 0 57 112" fill="none" xmlns="http://www.w3.org/2000/svg">
<g clip-path="url(#clip0_118_393)">
<path d="M3.00586 100.689C3.00586 100.503 3.00586 100.503 3.00586 100.318C3.00586 100.132 3.00586 99.7616 3.19465 99.5762C3.38344 99.0199 3.94981 98.4636 4.70497 98.4636C4.89376 98.4636 4.89376 98.4636 5.08256 98.4636C5.83772 98.4636 6.59288 99.0199 6.97046 99.5762C7.15925 99.7616 7.15925 100.132 7.15925 100.318C7.15925 100.503 7.15925 100.503 7.15925 100.689C6.97046 101.616 6.2153 102.172 5.27135 102.172C5.08255 102.172 5.08256 102.172 4.89376 102.172C3.76102 101.987 3.19465 101.431 3.00586 100.689Z" fill="#7D53F8"/>
<path d="M33.0239 110.146C33.0239 109.033 33.9679 108.106 35.1006 108.106C36.2334 108.106 37.1773 109.033 37.1773 110.146C37.1773 111.258 36.2334 112.185 35.1006 112.185C33.9679 112 33.0239 111.258 33.0239 110.146Z" fill="#7D53F8"/>
<path d="M13.0112 110.146C13.0112 109.033 13.9552 108.106 15.0879 108.106C16.2207 108.106 17.1646 109.033 17.1646 110.146C17.1646 111.258 16.2207 112.185 15.0879 112.185C13.9552 112 13.0112 111.258 13.0112 110.146Z" fill="#7D53F8"/>
<path d="M43.0297 100.689C43.0297 100.503 43.0297 100.503 43.0297 100.318C43.0297 100.132 43.0297 99.7615 43.2185 99.5761C43.4072 99.2052 43.596 98.8344 43.9736 98.6489C44.3512 98.4635 44.7288 98.2781 45.1064 98.2781C45.2952 98.2781 45.6727 98.2781 45.8615 98.4635C46.4279 98.6489 46.8055 99.0198 46.9943 99.5761C47.1831 99.7615 47.1831 100.132 47.1831 100.318C47.1831 100.503 47.1831 100.503 47.1831 100.689C46.9943 101.245 46.6167 101.801 46.0503 102.172C45.8615 102.358 45.4839 102.358 45.2952 102.358C44.9176 102.358 44.54 102.172 44.1624 101.987C43.4072 101.616 43.2185 101.245 43.0297 100.689Z" fill="#7D53F8"/>
<path d="M23.0176 100.689C23.0176 100.503 23.0176 100.503 23.0176 100.318C23.0176 100.132 23.0176 99.7616 23.2064 99.5762C23.584 98.8345 24.1503 98.4636 25.0943 98.4636C25.8494 98.4636 26.6046 99.0199 26.9822 99.5762C27.171 99.7616 27.171 100.132 27.171 100.318C27.171 100.503 27.171 100.503 27.171 100.689C26.9822 101.616 26.227 102.172 25.2831 102.172C24.1503 102.172 23.2064 101.616 23.0176 100.689Z" fill="#7D53F8"/>
<path d="M53.0352 110.146C53.0352 109.033 53.9791 108.106 55.1119 108.106C56.2446 108.106 57.1886 109.033 57.1886 110.146C57.1886 111.258 56.2446 112.185 55.1119 112.185C53.9791 112 53.0352 111.258 53.0352 110.146Z" fill="#7D53F8"/>
<path d="M3.00586 80.6622C3.00586 79.735 3.76102 78.9933 4.51618 78.8079C4.70497 78.8079 4.70497 78.8079 4.89376 78.8079C6.02651 78.8079 6.97046 79.735 6.97046 80.8476C6.97046 81.9602 6.02651 82.8873 4.89376 82.8873C4.70497 82.8873 4.70497 82.8873 4.51618 82.8873C3.76102 82.3311 3.00586 81.5893 3.00586 80.6622Z" fill="#7D53F8"/>
<path d="M3.38344 62.1192C3.19465 61.7484 3.00586 61.3775 3.00586 61.0067C3.00586 60.0795 3.76102 59.3378 4.51618 59.1523C4.70497 59.1523 4.70497 59.1523 4.89376 59.1523C6.02651 59.1523 6.97046 60.0795 6.97046 61.1921C6.97046 61.5629 6.78167 61.9338 6.59288 62.3047C6.2153 62.8609 5.64893 63.2318 4.89376 63.2318C4.70497 63.2318 4.70497 63.2318 4.51618 63.2318C4.1386 62.6755 3.57223 62.4901 3.38344 62.1192Z" fill="#7D53F8"/>
<path d="M43.0297 80.6623C43.0297 79.9206 43.4072 79.3643 43.9736 78.9934C44.3512 78.808 44.7288 78.6226 45.1064 78.6226C45.2951 78.6226 45.6727 78.6226 45.8615 78.808C46.6167 79.1788 46.9943 79.7351 46.9943 80.6623C46.9943 81.404 46.4279 82.1457 45.8615 82.5166C45.6727 82.702 45.2951 82.702 45.1064 82.702C44.7288 82.702 44.3512 82.5166 43.9736 82.3312C43.4072 81.9603 43.0297 81.2186 43.0297 80.6623Z" fill="#7D53F8"/>
<path d="M23.0176 80.6623C23.0176 79.5497 23.9615 78.6226 25.0943 78.6226C26.227 78.6226 27.171 79.5497 27.171 80.6623C27.171 81.7749 26.227 82.702 25.0943 82.702C23.9615 82.5166 23.0176 81.7749 23.0176 80.6623Z" fill="#7D53F8"/>
<path d="M33.0239 70.8347C33.0239 69.7221 33.9679 68.7949 35.1006 68.7949C36.2334 68.7949 37.1773 69.7221 37.1773 70.8347C37.1773 71.9472 36.2334 72.8744 35.1006 72.8744C33.9679 72.689 33.0239 71.7618 33.0239 70.8347Z" fill="#7D53F8"/>
<path d="M33.0239 90.4899C33.0239 89.3773 33.9679 88.4502 35.1006 88.4502C36.2334 88.4502 37.1773 89.3773 37.1773 90.4899C37.1773 91.6025 36.2334 92.5297 35.1006 92.5297C33.9679 92.3443 33.0239 91.6025 33.0239 90.4899Z" fill="#7D53F8"/>
<path d="M13.0112 70.8344C13.0112 69.7218 13.9552 68.7947 15.0879 68.7947C16.2207 68.7947 17.1646 69.7218 17.1646 70.8344C17.1646 71.947 16.2207 72.8741 15.0879 72.8741C13.9552 72.6887 13.0112 71.7616 13.0112 70.8344Z" fill="#7D53F8"/>
<path d="M13.0112 90.4899C13.0112 89.3773 13.9552 88.4502 15.0879 88.4502C16.2207 88.4502 17.1646 89.3773 17.1646 90.4899C17.1646 91.6025 16.2207 92.5297 15.0879 92.5297C13.9552 92.3443 13.0112 91.6025 13.0112 90.4899Z" fill="#7D53F8"/>
<path d="M43.4072 62.1191C43.2185 61.7483 43.0297 61.3774 43.0297 61.0065C43.0297 60.2648 43.4072 59.7085 43.9736 59.3377C44.3512 59.1522 44.7288 58.9668 45.1064 58.9668C45.2951 58.9668 45.6727 58.9668 45.8615 59.1522C46.6167 59.5231 46.9943 60.0794 46.9943 61.0065C46.9943 61.3774 46.8055 61.7483 46.6167 62.1191C46.4279 62.49 46.0503 62.6754 45.6727 62.8608C45.4839 63.0463 45.1064 63.0463 44.9176 63.0463C44.54 63.0463 44.1624 62.8608 43.7848 62.6754C43.7848 62.49 43.596 62.3045 43.4072 62.1191Z" fill="#7D53F8"/>
<path d="M23.3952 62.1194C23.2064 61.7485 23.0176 61.3776 23.0176 61.0068C23.0176 59.8942 23.9615 58.967 25.0943 58.967C26.227 58.967 27.171 59.8942 27.171 61.0068C27.171 61.3776 26.9822 61.7485 26.7934 62.1194C26.4158 62.6757 25.8494 63.0465 25.0943 63.0465C24.3391 62.8611 23.7727 62.4902 23.3952 62.1194Z" fill="#7D53F8"/>
<path d="M53.0352 70.8347C53.0352 69.7221 53.9791 68.7949 55.1119 68.7949C56.2446 68.7949 57.1886 69.7221 57.1886 70.8347C57.1886 71.9472 56.2446 72.8744 55.1119 72.8744C53.9791 72.689 53.0352 71.7618 53.0352 70.8347Z" fill="#7D53F8"/>
<path d="M53.0352 90.4899C53.0352 89.3773 53.9791 88.4502 55.1119 88.4502C56.2446 88.4502 57.1886 89.3773 57.1886 90.4899C57.1886 91.6025 56.2446 92.5297 55.1119 92.5297C53.9791 92.3443 53.0352 91.6025 53.0352 90.4899Z" fill="#7D53F8"/>
<path d="M3.00586 41.3511C3.00586 40.424 3.76102 39.6823 4.51618 39.4968C4.70497 39.4968 4.70497 39.4968 4.89376 39.4968C6.02651 39.4968 6.97046 40.424 6.97046 41.5366C6.97046 42.6491 6.02651 43.5763 4.89376 43.5763C4.70497 43.5763 4.70497 43.5763 4.51618 43.5763C3.76102 43.02 3.00586 42.2783 3.00586 41.3511Z" fill="#7D53F8"/>
<path d="M3.00586 22.0662C3.00586 21.8808 3.00586 21.8808 3.00586 21.6954C3.00586 21.5099 3.00586 21.1391 3.19465 20.9536C3.38344 20.3974 3.94981 19.8411 4.70497 19.8411C4.89376 19.8411 4.89376 19.8411 5.08256 19.8411C5.83772 19.8411 6.59288 20.3974 6.97046 20.9536C7.15925 21.1391 7.15925 21.5099 7.15925 21.6954C7.15925 21.8808 7.15925 21.8808 7.15925 22.0662C6.97046 22.9934 6.2153 23.5497 5.27135 23.5497C5.08255 23.5497 5.08256 23.5497 4.89376 23.5497C3.76102 23.3642 3.19465 22.808 3.00586 22.0662Z" fill="#7D53F8"/>
<path d="M43.0297 41.351C43.0297 40.6093 43.4072 40.053 43.9736 39.6821C44.3512 39.4967 44.7288 39.3113 45.1064 39.3113C45.2951 39.3113 45.6727 39.3113 45.8615 39.4967C46.6167 39.8676 46.9943 40.4239 46.9943 41.351C46.9943 42.0927 46.4279 42.8345 45.8615 43.2053C45.6727 43.3907 45.2951 43.3907 45.1064 43.3907C44.7288 43.3907 44.3512 43.2053 43.9736 43.0199C43.4072 42.649 43.0297 41.9073 43.0297 41.351Z" fill="#7D53F8"/>
<path d="M23.0176 41.351C23.0176 40.2384 23.9615 39.3113 25.0943 39.3113C26.227 39.3113 27.171 40.2384 27.171 41.351C27.171 42.4636 26.227 43.3907 25.0943 43.3907C23.9615 43.2053 23.0176 42.2782 23.0176 41.351Z" fill="#7D53F8"/>
<path d="M33.0239 31.5231C33.0239 30.4106 33.9679 29.4834 35.1006 29.4834C36.2334 29.4834 37.1773 30.4106 37.1773 31.5231C37.1773 32.6357 36.2334 33.5629 35.1006 33.5629C33.9679 33.3774 33.0239 32.4503 33.0239 31.5231Z" fill="#7D53F8"/>
<path d="M33.0239 51.1789C33.0239 50.0663 33.9679 49.1392 35.1006 49.1392C36.2334 49.1392 37.1773 50.0663 37.1773 51.1789C37.1773 52.2915 36.2334 53.2186 35.1006 53.2186C33.9679 53.0332 33.0239 52.1061 33.0239 51.1789Z" fill="#7D53F8"/>
<path d="M13.0112 31.5231C13.0112 30.4106 13.9552 29.4834 15.0879 29.4834C16.2207 29.4834 17.1646 30.4106 17.1646 31.5231C17.1646 32.6357 16.2207 33.5629 15.0879 33.5629C13.9552 33.3774 13.0112 32.4503 13.0112 31.5231Z" fill="#7D53F8"/>
<path d="M13.0112 51.1789C13.0112 50.0663 13.9552 49.1392 15.0879 49.1392C16.2207 49.1392 17.1646 50.0663 17.1646 51.1789C17.1646 52.2915 16.2207 53.2186 15.0879 53.2186C13.9552 53.0332 13.0112 52.1061 13.0112 51.1789Z" fill="#7D53F8"/>
<path d="M43.0297 22.0664C43.0297 21.8809 43.0297 21.8809 43.0297 21.6955C43.0297 21.5101 43.0297 21.1392 43.2185 20.9538C43.4072 20.5829 43.596 20.2121 43.9736 20.0266C44.3512 19.8412 44.7288 19.6558 45.1064 19.6558C45.2952 19.6558 45.6727 19.6558 45.8615 19.8412C46.4279 20.0266 46.8055 20.3975 46.9943 20.9538C47.1831 21.1392 47.1831 21.5101 47.1831 21.6955C47.1831 21.8809 47.1831 21.8809 47.1831 22.0664C46.9943 22.6226 46.6167 23.1789 46.0503 23.5498C45.8615 23.7352 45.4839 23.7352 45.2952 23.7352C44.9176 23.7352 44.54 23.5498 44.1624 23.3644C43.4072 22.9935 43.2185 22.6226 43.0297 22.0664Z" fill="#7D53F8"/>
<path d="M23.0176 22.066C23.0176 21.8806 23.0176 21.8806 23.0176 21.6951C23.0176 21.5097 23.0176 21.1388 23.2064 20.9534C23.584 20.2117 24.1503 19.8408 25.0943 19.8408C25.8494 19.8408 26.6046 20.3971 26.9822 20.9534C27.171 21.1388 27.171 21.5097 27.171 21.6951C27.171 21.8806 27.171 21.8806 27.171 22.066C26.9822 22.9931 26.227 23.5494 25.2831 23.5494C24.1503 23.5494 23.2064 22.9931 23.0176 22.066Z" fill="#7D53F8"/>
<path d="M53.0352 31.5231C53.0352 30.4106 53.9791 29.4834 55.1119 29.4834C56.2446 29.4834 57.1886 30.4106 57.1886 31.5231C57.1886 32.6357 56.2446 33.5629 55.1119 33.5629C53.9791 33.3774 53.0352 32.4503 53.0352 31.5231Z" fill="#7D53F8"/>
<path d="M53.0352 51.1789C53.0352 50.0663 53.9791 49.1392 55.1119 49.1392C56.2446 49.1392 57.1886 50.0663 57.1886 51.1789C57.1886 52.2915 56.2446 53.2186 55.1119 53.2186C53.9791 53.0332 53.0352 52.1061 53.0352 51.1789Z" fill="#7D53F8"/>
<path d="M3.00586 2.03985C3.00586 1.1127 3.76102 0.370977 4.51618 0.185547C4.70497 0.185547 4.70497 0.185547 4.89376 0.185547C6.02651 0.185547 6.97046 1.1127 6.97046 2.22528C6.97046 3.33786 6.02651 4.26502 4.89376 4.26502C4.70497 4.26502 4.70497 4.26502 4.51618 4.26502C3.76102 3.70873 3.00586 2.967 3.00586 2.03985Z" fill="#7D53F8"/>
<path d="M43.0297 2.03974C43.0297 1.29801 43.4072 0.741722 43.9736 0.370861C44.1624 0.185431 44.54 6.60184e-08 45.1064 9.07752e-08C45.2951 9.90275e-08 45.6727 1.15532e-07 45.8615 0.185431C46.6167 0.556292 46.9943 1.11258 46.9943 2.03974C46.9943 2.78146 46.4279 3.52318 45.8615 3.89404C45.6727 4.07947 45.2951 4.07947 45.1064 4.07947C44.7288 4.07947 44.3512 3.89404 43.9736 3.70861C43.4072 3.15232 43.0297 2.59603 43.0297 2.03974Z" fill="#7D53F8"/>
<path d="M23.0176 2.03974C23.0176 0.927152 23.9615 4.12615e-08 25.0943 9.07753e-08C26.0382 1.32037e-07 26.9822 0.927152 26.9822 2.03974C26.9822 3.15232 26.0382 4.07947 24.9055 4.07947C23.9615 3.89404 23.0176 2.96689 23.0176 2.03974Z" fill="#7D53F8"/>
<path d="M33.0239 11.8676C33.0239 10.755 33.9679 9.82788 35.1006 9.82788C36.2334 9.82788 37.1773 10.755 37.1773 11.8676C37.1773 12.9802 36.2334 13.9074 35.1006 13.9074C33.9679 13.7219 33.0239 12.7948 33.0239 11.8676Z" fill="#7D53F8"/>
<path d="M13.0112 11.8676C13.0112 10.755 13.9552 9.82788 15.0879 9.82788C16.2207 9.82788 17.1646 10.755 17.1646 11.8676C17.1646 12.9802 16.2207 13.9074 15.0879 13.9074C13.9552 13.7219 13.0112 12.7948 13.0112 11.8676Z" fill="#7D53F8"/>
<path d="M53.0352 11.8676C53.0352 10.755 53.9791 9.82788 55.1119 9.82788C56.2446 9.82788 57.1886 10.755 57.1886 11.8676C57.1886 12.9802 56.2446 13.9074 55.1119 13.9074C53.9791 13.7219 53.0352 12.7948 53.0352 11.8676Z" fill="#7D53F8"/>
</g>
<defs>
<clipPath id="clip0_118_393">
<rect width="112" height="64" fill="white" transform="matrix(-4.37114e-08 1 1 4.37114e-08 -7 0)"/>
</clipPath>
</defs>
</svg>
