<svg width="120" height="35" viewBox="0 0 120 35" fill="none" xmlns="http://www.w3.org/2000/svg">
<g clip-path="url(#clip0_136_559)">
<path d="M115.73 35H4.20356C1.88622 35 0 33.138 0 30.8586V4.13525C0 1.855 1.88622 0 4.20356 0H115.73C118.047 0 120 1.855 120 4.13525V30.8586C120 33.138 118.047 35 115.73 35Z" fill="#A6A6A6"/>
<path d="M119.139 30.8596C119.139 32.7111 117.616 34.2108 115.732 34.2108H4.2037C2.32014 34.2108 0.79126 32.7111 0.79126 30.8596V4.13443C0.79126 2.28381 2.32014 0.778809 4.2037 0.778809H115.73C117.616 0.778809 119.139 2.28381 119.139 4.13443L119.139 30.8596Z" fill="black"/>
<path d="M26.7805 17.3107C26.7547 14.4905 29.1262 13.1185 29.2347 13.0547C27.8916 11.127 25.8098 10.8637 25.0782 10.8427C23.3298 10.6615 21.6338 11.8725 20.7431 11.8725C19.8347 11.8725 18.4631 10.8602 16.9849 10.8899C15.0827 10.9188 13.3031 12.0029 12.3271 13.6864C10.3129 17.119 11.8151 22.1634 13.7449 24.938C14.7102 26.2969 15.8382 27.8142 17.3147 27.7608C18.7591 27.7022 19.2987 26.8543 21.0418 26.8543C22.7689 26.8543 23.2755 27.7608 24.7814 27.7267C26.3316 27.7022 27.3075 26.3617 28.2391 24.9905C29.3547 23.433 29.8027 21.8992 29.8204 21.8204C29.784 21.8082 26.8098 20.6908 26.7805 17.3107Z" fill="white"/>
<path d="M23.9361 9.01729C24.713 8.06095 25.2445 6.75983 25.097 5.43945C23.9725 5.48845 22.5662 6.20508 21.7565 7.14045C21.04 7.9647 20.4001 9.3157 20.5654 10.5862C21.8285 10.679 23.1254 9.95879 23.9361 9.01729Z" fill="white"/>
<path d="M47.6844 27.5664H45.6658L44.56 24.146H40.7164L39.6631 27.5664H37.6978L41.5057 15.9219H43.8577L47.6844 27.5664ZM44.2266 22.711L43.2266 19.6704C43.1208 19.3598 42.9227 18.6283 42.6302 17.4768H42.5946C42.4782 17.972 42.2906 18.7035 42.0328 19.6704L41.0507 22.711H44.2266Z" fill="white"/>
<path d="M57.4774 23.2649C57.4774 24.6929 57.0854 25.8216 56.3014 26.6503C55.5992 27.3879 54.7272 27.7563 53.6863 27.7563C52.5628 27.7563 51.7556 27.3591 51.2641 26.5646H51.2285V30.9876H49.3334V21.9341C49.3334 21.0363 49.3094 20.1149 49.2632 19.1699H50.9298L51.0356 20.5008H51.0712C51.7032 19.4981 52.6623 18.9976 53.9494 18.9976C54.9557 18.9976 55.7957 19.3886 56.4677 20.1718C57.1414 20.9558 57.4774 21.9866 57.4774 23.2649ZM55.5467 23.3331C55.5467 22.5159 55.3601 21.8421 54.985 21.3119C54.5752 20.7589 54.025 20.4824 53.3352 20.4824C52.8677 20.4824 52.4428 20.6364 52.0632 20.9401C51.6827 21.2463 51.4338 21.6461 51.3174 22.1414C51.2587 22.3724 51.2294 22.5614 51.2294 22.7101V24.1101C51.2294 24.7209 51.4196 25.2363 51.8001 25.6571C52.1805 26.0781 52.6747 26.2881 53.2828 26.2881C53.9965 26.2881 54.5521 26.0168 54.9494 25.4761C55.3476 24.9344 55.5467 24.2204 55.5467 23.3331Z" fill="white"/>
<path d="M67.288 23.2649C67.288 24.6929 66.896 25.8216 66.1111 26.6503C65.4098 27.3879 64.5378 27.7563 63.4969 27.7563C62.3734 27.7563 61.5662 27.3591 61.0756 26.5646H61.04V30.9876H59.1449V21.9341C59.1449 21.0363 59.1209 20.1149 59.0747 19.1699H60.7414L60.8472 20.5008H60.8827C61.5138 19.4981 62.4729 18.9976 63.7609 18.9976C64.7663 18.9976 65.6063 19.3886 66.28 20.1718C66.9511 20.9558 67.288 21.9866 67.288 23.2649ZM65.3574 23.3331C65.3574 22.5159 65.1698 21.8421 64.7947 21.3119C64.3849 20.7589 63.8364 20.4824 63.1458 20.4824C62.6773 20.4824 62.2534 20.6364 61.8729 20.9401C61.4925 21.2463 61.2444 21.6461 61.1281 22.1414C61.0703 22.3724 61.04 22.5614 61.04 22.7101V24.1101C61.04 24.7209 61.2302 25.2363 61.6089 25.6571C61.9894 26.0771 62.4836 26.2881 63.0934 26.2881C63.8071 26.2881 64.3627 26.0168 64.76 25.4761C65.1583 24.9344 65.3574 24.2204 65.3574 23.3331Z" fill="white"/>
<path d="M78.257 24.3006C78.257 25.2911 77.9077 26.097 77.2061 26.7191C76.4357 27.399 75.3628 27.7385 73.9839 27.7385C72.7108 27.7385 71.6904 27.497 70.9182 27.0131L71.3574 25.4582C72.1896 25.9535 73.102 26.202 74.0968 26.202C74.8104 26.202 75.3664 26.0427 75.7654 25.726C76.1624 25.4092 76.3612 24.984 76.3612 24.4537C76.3612 23.9812 76.1971 23.5831 75.8691 23.2602C75.5432 22.9373 74.9979 22.6372 74.2374 22.3598C72.1661 21.5995 71.1316 20.4856 71.1316 19.0208C71.1316 18.0636 71.4944 17.2787 72.2201 16.668C72.9437 16.0563 73.9093 15.751 75.1164 15.751C76.1929 15.751 77.0869 15.9356 77.8012 16.304L77.3269 17.8247C76.6601 17.4677 75.9067 17.2892 75.0632 17.2892C74.3964 17.2892 73.8753 17.4511 73.5025 17.7731C73.1865 18.061 73.0282 18.4118 73.0282 18.8275C73.0282 19.2877 73.2085 19.6683 73.5713 19.9676C73.8873 20.2441 74.4603 20.5433 75.2925 20.8662C76.31 21.2696 77.0577 21.7412 77.5384 22.282C78.0177 22.821 78.257 23.4956 78.257 24.3006Z" fill="white"/>
<path d="M84.5224 20.5697H82.4334V24.6464C82.4334 25.6832 82.8012 26.2012 83.539 26.2012C83.8777 26.2012 84.1589 26.1724 84.3811 26.1146L84.4337 27.5312C84.0602 27.6686 83.5688 27.7377 82.9596 27.7377C82.2112 27.7377 81.6268 27.5129 81.2043 27.064C80.784 26.6142 80.5724 25.86 80.5724 24.8004V20.568H79.3276V19.168H80.5724V17.6306L82.4334 17.0776V19.168H84.5224V20.5697Z" fill="white"/>
<path d="M93.9471 23.2987C93.9471 24.5893 93.5722 25.649 92.8238 26.4775C92.0392 27.3307 90.9968 27.756 89.6988 27.756C88.447 27.756 87.4508 27.3473 86.7073 26.53C85.9639 25.7128 85.5925 24.6812 85.5925 23.4378C85.5925 22.1367 85.9753 21.071 86.7421 20.2423C87.5076 19.4128 88.54 18.998 89.8387 18.998C91.0905 18.998 92.0974 19.4067 92.8579 20.2248C93.585 21.0185 93.9471 22.043 93.9471 23.2987ZM91.9809 23.359C91.9809 22.5847 91.8134 21.9205 91.4725 21.3667C91.0756 20.6965 90.5076 20.3622 89.7712 20.3622C89.0093 20.3622 88.4306 20.6973 88.0337 21.3667C87.6929 21.9215 87.5253 22.596 87.5253 23.394C87.5253 24.1685 87.6929 24.8325 88.0337 25.3855C88.4434 26.0558 89.0157 26.39 89.7542 26.39C90.4777 26.39 91.0458 26.0488 91.4555 25.368C91.8048 24.8037 91.9809 24.1325 91.9809 23.359Z" fill="white"/>
<path d="M100.108 20.8106C99.9203 20.7764 99.72 20.7589 99.5106 20.7589C98.8438 20.7589 98.3283 21.0066 97.9655 21.5026C97.6502 21.9401 97.4919 22.4931 97.4919 23.1608V27.5664H95.5974L95.6152 21.8141C95.6152 20.8464 95.5911 19.9653 95.5442 19.1708H97.1951L97.264 20.7773H97.3165C97.5167 20.2251 97.832 19.7806 98.2644 19.4473C98.6862 19.1471 99.1421 18.9976 99.6341 18.9976C99.8088 18.9976 99.9671 19.0098 100.108 19.0316V20.8106Z" fill="white"/>
<path d="M108.583 22.9701C108.583 23.3044 108.561 23.5861 108.514 23.8162H102.828C102.85 24.6457 103.125 25.2801 103.653 25.7176C104.132 26.1087 104.752 26.3047 105.512 26.3047C106.355 26.3047 107.122 26.1726 107.813 25.9075L108.11 27.2025C107.303 27.549 106.35 27.7214 105.25 27.7214C103.928 27.7214 102.89 27.3381 102.134 26.5725C101.38 25.8069 101.002 24.7787 101.002 23.489C101.002 22.2229 101.354 21.1685 102.057 20.3276C102.793 19.4299 103.787 18.981 105.039 18.981C106.268 18.981 107.199 19.4299 107.831 20.3276C108.331 21.0407 108.583 21.9227 108.583 22.9701ZM106.776 22.4862C106.788 21.9332 106.665 21.4555 106.408 21.0521C106.08 20.5332 105.576 20.2742 104.898 20.2742C104.278 20.2742 103.774 20.5271 103.389 21.0346C103.073 21.438 102.886 21.9219 102.828 22.4854H106.776V22.4862Z" fill="white"/>
<path d="M43.6001 8.75738C43.6001 9.78722 43.2863 10.5625 42.6597 11.0831C42.0792 11.5635 41.2543 11.8041 40.1859 11.8041C39.6561 11.8041 39.2028 11.7814 38.8232 11.7359V6.10875C39.3184 6.03 39.8517 5.98975 40.4277 5.98975C41.4454 5.98975 42.2126 6.20762 42.7299 6.64337C43.3095 7.13598 43.6001 7.84038 43.6001 8.75738ZM42.6179 8.78273C42.6179 8.11514 42.4384 7.60323 42.0792 7.24623C41.7201 6.89012 41.1957 6.71162 40.505 6.71162C40.2117 6.71162 39.9619 6.73087 39.7548 6.77112V11.049C39.8694 11.0665 40.0792 11.0744 40.3841 11.0744C41.097 11.0744 41.6472 10.8792 42.0348 10.489C42.4223 10.0987 42.6179 9.52998 42.6179 8.78273Z" fill="white"/>
<path d="M48.8079 9.65717C48.8079 10.2916 48.6239 10.8113 48.2559 11.2191C47.8701 11.6382 47.359 11.8473 46.7208 11.8473C46.1057 11.8473 45.6159 11.6469 45.2505 11.2444C44.8861 10.8428 44.7039 10.3362 44.7039 9.72542C44.7039 9.08667 44.8914 8.56258 45.2683 8.15567C45.6452 7.74883 46.1519 7.54492 46.7901 7.54492C47.4052 7.54492 47.8994 7.74533 48.2736 8.14692C48.6292 8.53717 48.8079 9.04117 48.8079 9.65717ZM47.8416 9.68692C47.8416 9.30633 47.7581 8.97992 47.5919 8.70783C47.3963 8.37883 47.1181 8.21433 46.7563 8.21433C46.3821 8.21433 46.0976 8.37883 45.9021 8.70783C45.735 8.97992 45.6523 9.31158 45.6523 9.70358C45.6523 10.0842 45.7359 10.4106 45.9021 10.6827C46.1039 11.0117 46.3848 11.1762 46.7474 11.1762C47.103 11.1762 47.3821 11.0091 47.583 10.6739C47.7554 10.3966 47.8416 10.0676 47.8416 9.68692Z" fill="white"/>
<path d="M55.7911 7.62891L54.48 11.7537H53.6266L53.0835 9.96257C52.9458 9.51541 52.8337 9.07091 52.7467 8.62991H52.7298C52.6489 9.08316 52.5368 9.52682 52.3928 9.96257L51.816 11.7537H50.9528L49.72 7.62891H50.6773L51.1511 9.58982C51.2658 10.0536 51.36 10.4954 51.4355 10.9137H51.4524C51.5217 10.5689 51.6364 10.1297 51.7982 9.59857L52.3928 7.62982H53.152L53.7217 9.55657C53.8595 10.0264 53.9715 10.4788 54.0577 10.9146H54.0836C54.1466 10.4902 54.2418 10.0378 54.3679 9.55657L54.8764 7.62982H55.7911V7.62891Z" fill="white"/>
<path d="M60.6204 11.7539H59.6888V9.39139C59.6888 8.66339 59.4079 8.29939 58.8444 8.29939C58.5679 8.29939 58.3448 8.39914 58.1715 8.59948C58 8.79989 57.9128 9.03614 57.9128 9.30648V11.753H56.9812V8.80773C56.9812 8.44548 56.9697 8.05264 56.9475 7.62739H57.7661L57.8097 8.27223H57.8355C57.9439 8.07189 58.1057 7.90648 58.3181 7.77439C58.5706 7.62039 58.8532 7.54248 59.1626 7.54248C59.5537 7.54248 59.8791 7.66673 60.1377 7.91614C60.4595 8.22148 60.6204 8.67739 60.6204 9.28289V11.7539Z" fill="white"/>
<path d="M63.1895 11.7537H62.2588V5.73633H63.1895V11.7537Z" fill="white"/>
<path d="M68.6736 9.65717C68.6736 10.2916 68.4896 10.8113 68.1216 11.2191C67.7358 11.6382 67.2239 11.8473 66.5865 11.8473C65.9705 11.8473 65.4807 11.6469 65.1163 11.2444C64.7519 10.8428 64.5696 10.3362 64.5696 9.72542C64.5696 9.08667 64.7572 8.56258 65.1341 8.15567C65.511 7.74883 66.0176 7.54492 66.655 7.54492C67.2709 7.54492 67.7643 7.74533 68.1394 8.14692C68.4949 8.53717 68.6736 9.04117 68.6736 9.65717ZM67.7065 9.68692C67.7065 9.30633 67.623 8.97992 67.4568 8.70783C67.2621 8.37883 66.9829 8.21433 66.6221 8.21433C66.247 8.21433 65.9625 8.37883 65.7678 8.70783C65.6007 8.97992 65.5181 9.31158 65.5181 9.70358C65.5181 10.0842 65.6016 10.4106 65.7678 10.6827C65.9696 11.0117 66.2505 11.1762 66.6132 11.1762C66.9687 11.1762 67.2469 11.0091 67.4478 10.6739C67.6211 10.3966 67.7065 10.0676 67.7065 9.68692Z" fill="white"/>
<path d="M73.1823 11.7537H72.3458L72.2762 11.2786H72.2507C71.9645 11.6574 71.5562 11.8473 71.0265 11.8473C70.6311 11.8473 70.3111 11.7222 70.0702 11.4737C69.8515 11.2479 69.7422 10.9671 69.7422 10.6337C69.7422 10.1297 69.9556 9.74558 70.3849 9.47958C70.8133 9.21358 71.4157 9.08317 72.1917 9.08933V9.01233C72.1917 8.46892 71.902 8.19767 71.3219 8.19767C70.9084 8.19767 70.544 8.30008 70.2293 8.50308L70.04 7.90108C70.4293 7.66392 70.9102 7.54492 71.4774 7.54492C72.5723 7.54492 73.1219 8.11367 73.1219 9.25117V10.7702C73.1219 11.1823 73.1425 11.5104 73.1823 11.7537ZM72.2152 10.3362V9.70008C71.1877 9.68258 70.6738 9.95992 70.6738 10.5313C70.6738 10.7466 70.7324 10.9076 70.8524 11.0152C70.9724 11.1228 71.1252 11.1762 71.3077 11.1762C71.5122 11.1762 71.7032 11.1123 71.8772 10.9854C72.0526 10.8577 72.1598 10.6958 72.2003 10.4972C72.2095 10.4526 72.2152 10.3983 72.2152 10.3362Z" fill="white"/>
<path d="M78.4758 11.7537H77.6486L77.6053 11.0913H77.5797C77.3156 11.5953 76.8654 11.8473 76.2334 11.8473C75.7286 11.8473 75.3082 11.6522 74.9752 11.262C74.6415 10.8717 74.4753 10.3651 74.4753 9.74297C74.4753 9.07531 74.6557 8.53456 75.0185 8.12156C75.37 7.73656 75.7996 7.54406 76.3123 7.54406C76.8746 7.54406 77.2687 7.73047 77.4924 8.10406H77.5101V5.73633H78.4424V10.6425C78.4424 11.0441 78.4531 11.4142 78.4758 11.7537ZM77.5101 10.0142V9.32647C77.5101 9.20747 77.5016 9.11122 77.4846 9.03772C77.432 8.81722 77.3191 8.63172 77.1473 8.48206C76.974 8.33247 76.7653 8.25722 76.5246 8.25722C76.1766 8.25722 75.9047 8.39281 75.7052 8.66497C75.5063 8.93706 75.4062 9.28447 75.4062 9.70881C75.4062 10.1166 75.5014 10.4473 75.6924 10.702C75.894 10.9732 76.166 11.1088 76.5068 11.1088C76.8121 11.1088 77.0571 10.996 77.2424 10.7693C77.4221 10.5602 77.5101 10.3082 77.5101 10.0142Z" fill="white"/>
<path d="M86.4425 9.65717C86.4425 10.2916 86.2586 10.8113 85.8908 11.2191C85.5045 11.6382 84.9947 11.8473 84.3557 11.8473C83.7415 11.8473 83.2515 11.6469 82.8851 11.2444C82.5209 10.8428 82.3384 10.3362 82.3384 9.72542C82.3384 9.08667 82.5258 8.56258 82.9029 8.15567C83.2799 7.74883 83.7862 7.54492 84.426 7.54492C85.0402 7.54492 85.5351 7.74533 85.9086 8.14692C86.2636 8.53717 86.4425 9.04117 86.4425 9.65717ZM85.4775 9.68692C85.4775 9.30633 85.3938 8.97992 85.2276 8.70783C85.0309 8.37883 84.7533 8.21433 84.3912 8.21433C84.0177 8.21433 83.7329 8.37883 83.537 8.70783C83.3694 8.97992 83.287 9.31158 83.287 9.70358C83.287 10.0842 83.3708 10.4106 83.537 10.6827C83.7386 11.0117 84.0191 11.1762 84.3819 11.1762C84.7377 11.1762 85.0174 11.0091 85.2184 10.6739C85.3902 10.3966 85.4775 10.0676 85.4775 9.68692Z" fill="white"/>
<path d="M91.4515 11.7539H90.5213V9.39139C90.5213 8.66339 90.2401 8.29939 89.6756 8.29939C89.3994 8.29939 89.1758 8.39914 89.0039 8.59948C88.8314 8.79989 88.7448 9.03614 88.7448 9.30648V11.753H87.8124V8.80773C87.8124 8.44548 87.8018 8.05264 87.7798 7.62739H88.5978L88.6411 8.27223H88.6666C88.776 8.07189 88.9379 7.90648 89.1495 7.77439C89.403 7.62039 89.6849 7.54248 89.9945 7.54248C90.385 7.54248 90.7102 7.66673 90.9687 7.91614C91.2917 8.22148 91.4515 8.67739 91.4515 9.28289V11.7539Z" fill="white"/>
<path d="M97.7211 8.31569H96.6951V10.3194C96.6951 10.8287 96.8776 11.0833 97.2383 11.0833C97.4052 11.0833 97.5436 11.0693 97.653 11.0404L97.6771 11.7361C97.4932 11.8043 97.2518 11.8384 96.9536 11.8384C96.5858 11.8384 96.2996 11.7282 96.0923 11.5077C95.8842 11.2872 95.7813 10.9162 95.7813 10.3956V8.31569H95.1692V7.62885H95.7813V6.87281L96.6944 6.60156V7.62794H97.7197V8.31569H97.7211Z" fill="white"/>
<path d="M102.652 11.7537H101.719V9.40872C101.719 8.66931 101.439 8.29922 100.876 8.29922C100.444 8.29922 100.149 8.51356 99.9876 8.94231C99.9599 9.03247 99.9436 9.14272 99.9436 9.27222V11.7528H99.0134V5.73633H99.9436V8.22222H99.9614C100.255 7.76981 100.676 7.54406 101.22 7.54406C101.606 7.54406 101.925 7.66831 102.178 7.91772C102.494 8.22831 102.652 8.69031 102.652 9.30106V11.7537Z" fill="white"/>
<path d="M107.739 9.49669C107.739 9.66119 107.727 9.79944 107.705 9.91235H104.911C104.923 10.3201 105.057 10.6307 105.315 10.8459C105.552 11.0384 105.857 11.1347 106.23 11.1347C106.644 11.1347 107.02 11.0699 107.36 10.9396L107.506 11.5766C107.108 11.7463 106.641 11.8312 106.099 11.8312C105.451 11.8312 104.94 11.6431 104.57 11.2668C104.198 10.8906 104.014 10.3857 104.014 9.75219C104.014 9.1301 104.186 8.6121 104.531 8.1991C104.892 7.7581 105.381 7.5376 105.996 7.5376C106.599 7.5376 107.057 7.7581 107.366 8.1991C107.616 8.5491 107.739 8.98219 107.739 9.49669ZM106.85 9.2596C106.857 8.98744 106.796 8.75294 106.67 8.55519C106.508 8.3006 106.262 8.17285 105.929 8.17285C105.625 8.17285 105.377 8.2971 105.187 8.54644C105.033 8.7451 104.941 8.98219 104.911 9.2596H106.85Z" fill="white"/>
</g>
<defs>
<clipPath id="clip0_136_559">
<rect width="120" height="35" fill="white"/>
</clipPath>
</defs>
</svg>
