<svg width="120" height="35" viewBox="0 0 120 35" fill="none" xmlns="http://www.w3.org/2000/svg">
<g clip-path="url(#clip0_136_560)">
<path fill-rule="evenodd" clip-rule="evenodd" d="M115.554 35H4.44608C1.99566 35 0 33.0274 0 30.625V4.375C0 1.96384 1.99566 0 4.44608 0H115.554C118.002 0 120 1.96384 120 4.375V30.625C120 33.0274 118.002 35 115.554 35Z" fill="black"/>
<path fill-rule="evenodd" clip-rule="evenodd" d="M115.554 0.700434C117.609 0.700434 119.291 2.35224 119.291 4.375V30.625C119.291 32.6478 117.62 34.2996 115.554 34.2996H4.44608C2.39081 34.2996 0.708639 32.6478 0.708639 30.625V4.375C0.708639 2.35224 2.37978 0.700434 4.44608 0.700434H115.554ZM115.554 0H4.44608C1.99566 0 0 1.97257 0 4.375V30.625C0 33.0361 1.99566 35 4.44608 35H115.554C118.002 35 120 33.0361 120 30.625V4.375C120 1.97257 118.002 0 115.554 0Z" fill="#A6A6A6"/>
<path d="M63.2165 11.5779C62.4152 11.5779 61.7397 11.3009 61.2055 10.7554C60.6756 10.2251 60.3798 9.4941 60.393 8.74783C60.393 7.95144 60.6668 7.27713 61.2055 6.74255C61.7375 6.19704 62.413 5.91992 63.2144 5.91992C64.0069 5.91992 64.6824 6.19704 65.2255 6.74255C65.7641 7.29463 66.0379 7.96887 66.0379 8.74783C66.029 9.54646 65.7553 10.2207 65.2255 10.7531C64.6935 11.303 64.0179 11.5779 63.2165 11.5779ZM39.3724 11.5779C38.5888 11.5779 37.9088 11.3052 37.3525 10.7662C36.8006 10.2295 36.5203 9.55087 36.5203 8.75C36.5203 7.9492 36.8006 7.27062 37.3525 6.73383C37.8977 6.19486 38.5777 5.92211 39.3724 5.92211C39.761 5.92211 40.1384 5.99848 40.5005 6.1534C40.8559 6.30396 41.1451 6.50908 41.3593 6.76001L41.4123 6.82329L40.814 7.40369L40.7522 7.33173C40.4144 6.93457 39.9619 6.74037 39.3636 6.74037C38.8294 6.74037 38.3636 6.92803 37.9794 7.29897C37.5931 7.67207 37.3966 8.16088 37.3966 8.75224C37.3966 9.34353 37.5931 9.83234 37.9794 10.2054C38.3636 10.5764 38.8294 10.764 39.3636 10.764C39.9332 10.764 40.4122 10.5764 40.7853 10.2054C41.006 9.98725 41.1429 9.68177 41.1915 9.29558H39.2731V8.47945H42.0149L42.0259 8.55365C42.0458 8.69113 42.0657 8.83295 42.0657 8.96385C42.0657 9.7167 41.8361 10.3255 41.3813 10.775C40.8648 11.3074 40.1892 11.5779 39.3724 11.5779ZM71.0758 11.4623H70.2302L67.6405 7.36659L67.6626 8.10418V11.4601H66.8171V6.03775H67.7818L67.8083 6.07921L70.2436 9.93706L70.2211 9.20171V6.03775H71.0758V11.4623ZM56.8631 11.4623H56.0066V6.85384H54.5209V6.03775H58.3466V6.85384H56.8609V11.4623H56.8631ZM53.8233 11.4623H52.969V6.03775H53.8233V11.4623ZM49.0218 11.4623H48.1674V6.85384H46.6817V6.03775H50.5075V6.85384H49.0218V11.4623ZM46.1409 11.4536H42.8648V6.03775H46.1409V6.85384H43.7214V8.34197H45.9047V9.14935H43.7214V10.6375H46.1409V11.4536ZM61.8324 10.1945C62.2143 10.572 62.6779 10.7619 63.2165 10.7619C63.7707 10.7619 64.2232 10.5764 64.6007 10.1945C64.976 9.82359 65.1659 9.33702 65.1659 8.75C65.1659 8.16305 64.976 7.67431 64.6029 7.30555C64.221 6.92803 63.7552 6.73819 63.2188 6.73819C62.6647 6.73819 62.2121 6.92367 61.8368 7.30555C61.4615 7.67648 61.2717 8.16305 61.2717 8.75C61.2717 9.33702 61.4594 9.82576 61.8324 10.1945Z" fill="white"/>
<path fill-rule="evenodd" clip-rule="evenodd" d="M60.3137 19.0361C58.2276 19.0361 56.5365 20.6007 56.5365 22.7587C56.5365 24.8971 58.2386 26.4812 60.3137 26.4812C62.3999 26.4812 64.0909 24.9058 64.0909 22.7587C64.0909 20.6007 62.3999 19.0361 60.3137 19.0361ZM60.3137 25.0062C59.1724 25.0062 58.19 24.0723 58.19 22.75C58.19 21.408 59.1746 20.4937 60.3137 20.4937C61.4551 20.4937 62.4375 21.408 62.4375 22.75C62.4396 24.081 61.4551 25.0062 60.3137 25.0062ZM52.0728 19.0361C49.9866 19.0361 48.2956 20.6007 48.2956 22.7587C48.2956 24.8971 49.9977 26.4812 52.0728 26.4812C54.159 26.4812 55.85 24.9058 55.85 22.7587C55.85 20.6007 54.1567 19.0361 52.0728 19.0361ZM52.0728 25.0062C50.9315 25.0062 49.9491 24.0723 49.9491 22.75C49.9491 21.408 50.9337 20.4937 52.0728 20.4937C53.2142 20.4937 54.1965 21.408 54.1965 22.75C54.1965 24.081 53.2142 25.0062 52.0728 25.0062ZM42.2667 20.173V21.7484H46.0925C45.9754 22.6322 45.6796 23.2846 45.2271 23.7319C44.6664 24.2861 43.801 24.8884 42.2756 24.8884C39.9245 24.8884 38.0855 23.0118 38.0855 20.6879C38.0855 18.364 39.9245 16.4875 42.2756 16.4875C43.5449 16.4875 44.4699 16.9828 45.1564 17.6156L46.2867 16.4984C45.333 15.5951 44.0637 14.9033 42.2843 14.9033C39.0591 14.9033 36.3525 17.5 36.3525 20.6792C36.3525 23.8672 39.0569 26.4551 42.2843 26.4551C44.0262 26.4551 45.333 25.8921 46.3662 24.8316C47.4192 23.7908 47.7525 22.3223 47.7525 21.1374C47.7525 20.7687 47.7238 20.437 47.6643 20.1555H42.2645C42.2667 20.1533 42.2667 20.173 42.2667 20.173ZM82.3763 21.3993C82.0605 20.5636 81.1068 19.0274 79.151 19.0274C77.2128 19.0274 75.6015 20.5352 75.6015 22.75C75.6015 24.8404 77.1952 26.4725 79.3384 26.4725C81.0605 26.4725 82.0626 25.4317 82.4759 24.8207L81.1973 23.9741C80.7735 24.596 80.184 25.004 79.3475 25.004C78.5019 25.004 77.9103 24.6244 77.5173 23.8759L82.5531 21.8139C82.5531 21.816 82.3763 21.3993 82.3763 21.3993ZM77.2415 22.6431C77.2015 21.2051 78.3721 20.4741 79.2085 20.4741C79.8682 20.4741 80.4184 20.7949 80.6057 21.2618L77.2415 22.6431ZM73.151 26.25H74.8043V15.3136H73.151V26.25ZM70.4352 19.8631H70.3756C70.0028 19.4246 69.2942 19.0274 68.3891 19.0274C66.5104 19.0274 64.7797 20.6617 64.7797 22.7609C64.7797 24.8513 66.5016 26.466 68.3891 26.466C69.2831 26.466 70.0028 26.0667 70.3756 25.6193H70.4352V26.1539C70.4352 27.5744 69.6673 28.3404 68.4288 28.3404C67.4156 28.3404 66.7864 27.6203 66.5303 27.0181L65.0932 27.6115C65.5059 28.5935 66.6076 29.8089 68.4266 29.8089C70.365 29.8089 72.0071 28.6808 72.0071 25.9292V19.25H70.4443V19.8631C70.4464 19.8631 70.4352 19.8631 70.4352 19.8631ZM68.537 25.0062C67.3957 25.0062 66.442 24.0636 66.442 22.7609C66.442 21.4473 67.3957 20.4959 68.537 20.4959C69.6673 20.4959 70.544 21.4582 70.544 22.7609C70.5545 24.0636 69.6695 25.0062 68.537 25.0062ZM90.118 15.3136H86.1643V26.25H87.8184V22.1084H90.1208C91.951 22.1084 93.7496 20.797 93.7496 18.7154C93.7496 16.6337 91.9573 15.3136 90.118 15.3136ZM90.1671 20.581H87.8156V16.8279H90.1671C91.405 16.8279 92.1054 17.8382 92.1054 18.7045C92.1054 19.562 91.3966 20.581 90.1671 20.581ZM100.377 19.0165C99.1763 19.0165 97.9377 19.5424 97.4254 20.6879L98.8913 21.2902C99.2071 20.6879 99.7854 20.4828 100.397 20.4828C101.253 20.4828 102.119 20.989 102.138 21.8924V22.008C101.843 21.8422 101.194 21.5891 100.417 21.5891C98.8338 21.5891 97.2289 22.4445 97.2289 24.0483C97.2289 25.5168 98.5271 26.4594 99.9728 26.4594C101.084 26.4594 101.695 25.9641 102.077 25.3902H102.136V26.2369H103.731V22.0474C103.731 20.0966 102.265 19.0165 100.377 19.0165ZM100.169 25.0062C99.6289 25.0062 98.8717 24.7443 98.8717 24.0723C98.8717 23.2256 99.8163 22.9049 100.622 22.9049C101.35 22.9049 101.695 23.0598 102.128 23.2736C102.009 24.2556 101.169 24.9975 100.169 25.0062ZM109.545 19.25L107.646 23.9937H107.587L105.62 19.25H103.841L106.792 25.8812L105.11 29.5666H106.832L111.373 19.25H109.545ZM94.6619 26.25H96.3152V15.3136H94.6619V26.25Z" fill="white"/>
<path fill-rule="evenodd" clip-rule="evenodd" d="M9.23652 6.59212C8.98045 6.86487 8.83252 7.28164 8.83252 7.82715V27.1754C8.83252 27.7209 8.98045 28.1376 9.24536 28.3994L9.31378 28.4584L20.2811 17.618V17.3758L9.30494 6.5332L9.23652 6.59212Z" fill="url(#paint0_linear_136_560)"/>
<path fill-rule="evenodd" clip-rule="evenodd" d="M23.9303 21.2422L20.2722 17.6266V17.3735L23.9303 13.7578L24.0097 13.8058L28.3366 16.2367C29.575 16.9262 29.575 18.0652 28.3366 18.7634L24.0097 21.1943L23.9303 21.2422Z" fill="url(#paint1_linear_136_560)"/>
<path fill-rule="evenodd" clip-rule="evenodd" d="M24.0098 21.1942L20.2723 17.5L9.23657 28.408C9.64057 28.8357 10.3183 28.8837 11.0755 28.467L24.0098 21.1942Z" fill="url(#paint2_linear_136_560)"/>
<path fill-rule="evenodd" clip-rule="evenodd" d="M24.0098 13.8057L11.0755 6.5438C10.3183 6.11612 9.63833 6.17503 9.23657 6.60271L20.2723 17.4999L24.0098 13.8057Z" fill="url(#paint3_linear_136_560)"/>
<path opacity="0.2" fill-rule="evenodd" clip-rule="evenodd" d="M23.9304 21.1152L11.0846 28.3291C10.3671 28.7371 9.72687 28.7088 9.31403 28.3378L9.24561 28.4055L9.31403 28.4644C9.72687 28.8332 10.3671 28.8637 11.0846 28.4556L24.0188 21.1938L23.9304 21.1152Z" fill="black"/>
<path opacity="0.12" fill-rule="evenodd" clip-rule="evenodd" d="M28.3366 18.6369L23.9192 21.1156L23.9987 21.1942L28.3256 18.7634C28.9459 18.4143 29.2506 17.9561 29.2506 17.5C29.213 17.919 28.8973 18.3161 28.3366 18.6369Z" fill="black"/>
<path opacity="0.25" fill-rule="evenodd" clip-rule="evenodd" d="M11.0755 6.67026L28.3366 16.3629C28.8973 16.675 29.213 17.083 29.2616 17.4998C29.2616 17.0437 28.9569 16.5855 28.3366 16.2363L11.0755 6.5437C9.83701 5.84327 8.83252 6.42805 8.83252 7.82676V7.95332C8.83252 6.55243 9.83701 5.97855 11.0755 6.67026Z" fill="white"/>
</g>
<defs>
<linearGradient id="paint0_linear_136_560" x1="19.2974" y1="7.61841" x2="1.75701" y2="12.3467" gradientUnits="userSpaceOnUse">
<stop stop-color="#00A0FF"/>
<stop offset="0.00657" stop-color="#00A1FF"/>
<stop offset="0.2601" stop-color="#00BEFF"/>
<stop offset="0.5122" stop-color="#00D2FF"/>
<stop offset="0.7604" stop-color="#00DFFF"/>
<stop offset="1" stop-color="#00E3FF"/>
</linearGradient>
<linearGradient id="paint1_linear_136_560" x1="29.9517" y1="17.5001" x2="8.53151" y2="17.5001" gradientUnits="userSpaceOnUse">
<stop stop-color="#FFE000"/>
<stop offset="0.4087" stop-color="#FFBD00"/>
<stop offset="0.7754" stop-color="#FFA500"/>
<stop offset="1" stop-color="#FF9C00"/>
</linearGradient>
<linearGradient id="paint2_linear_136_560" x1="21.9775" y1="19.5102" x2="8.11547" y2="43.1142" gradientUnits="userSpaceOnUse">
<stop stop-color="#FF3A44"/>
<stop offset="1" stop-color="#C31162"/>
</linearGradient>
<linearGradient id="paint3_linear_136_560" x1="6.45766" y1="0.156288" x2="12.642" y2="10.6981" gradientUnits="userSpaceOnUse">
<stop stop-color="#32A071"/>
<stop offset="0.0685" stop-color="#2DA771"/>
<stop offset="0.4762" stop-color="#15CF74"/>
<stop offset="0.8009" stop-color="#06E775"/>
<stop offset="1" stop-color="#00F076"/>
</linearGradient>
<clipPath id="clip0_136_560">
<rect width="120" height="35" fill="white"/>
</clipPath>
</defs>
</svg>
