<svg width="142" height="36" viewBox="0 0 142 36" fill="none" xmlns="http://www.w3.org/2000/svg">
<path fill-rule="evenodd" clip-rule="evenodd" d="M17 0C26.3508 0 34 7.96663 34 17.7056V18.2944C34 28.0334 26.3508 36 17 36C7.64915 36 0 28.0334 0 18.2944V17.7056C0 7.97252 7.64915 0 17 0ZM19.3632 23.4406C17.5032 23.4406 15.9937 25.0128 15.9937 26.95C15.9937 28.8871 17.5032 30.4593 19.3632 30.4593C21.2231 30.4593 22.7326 28.8871 22.7326 26.95C22.7326 25.0128 21.2231 23.4406 19.3632 23.4406ZM11.1487 14.4966C9.28866 14.4966 7.77918 16.0687 7.77918 18.0059C7.77918 19.9431 9.28866 21.5152 11.1487 21.5152C13.0086 21.5152 14.5181 19.9431 14.5181 18.0059C14.5181 16.0628 13.0086 14.4966 11.1487 14.4966ZM19.3632 5.5466C17.5032 5.5466 15.9937 7.11874 15.9937 9.05594C15.9937 10.9931 17.5032 12.5653 19.3632 12.5653C21.2231 12.5653 22.7326 10.9931 22.7326 9.05594C22.7326 7.11874 21.2231 5.5466 19.3632 5.5466ZM19.3632 14.4966C17.5032 14.4966 15.9937 16.0687 15.9937 18.0059C15.9937 19.9431 17.5032 21.5152 19.3632 21.5152C21.2231 21.5152 22.7326 19.9431 22.7326 18.0059C22.7326 16.0628 21.2231 14.4966 19.3632 14.4966Z" fill="#00B6E4"/>
<path fill-rule="evenodd" clip-rule="evenodd" d="M129.536 10.3827L132.4 20.9527H126.631L129.536 10.3827ZM55.3077 23.532C55.3077 18.5687 54.9704 17.2417 48.1776 15.6103C44.2152 14.6624 44.1065 14.6279 44.1065 12.198C44.1065 10.3425 44.6726 9.88864 47.1998 9.88864C49.4641 9.88864 51.311 10.1184 54.1756 10.6067L54.7416 5.83297C51.9513 5.22404 49.3097 5 47.1255 5C40.2242 5 38.4517 7.0106 38.4517 12.0486C38.4517 17.506 39.3551 18.7181 45.4273 20.0451C49.5384 20.9527 49.6528 21.217 49.6528 23.4918C49.6528 25.6116 49.0867 26.1803 46.1821 26.1803C43.5805 26.1803 41.2419 25.6863 38.9434 24.9682L38 29.3628C40.1499 30.3451 43.2031 30.9943 46.1077 30.9943C53.6838 30.9943 55.3077 28.5298 55.3077 23.532ZM73.4216 22.7738C73.4216 24.7441 72.1751 25.9563 69.3506 25.9563C66.5203 25.9563 65.2795 24.7441 65.2795 22.7738V13.2262C65.2795 11.2559 66.526 10.0437 69.3506 10.0437C72.1809 10.0437 73.4216 11.2559 73.4216 13.2262V22.7738ZM79.0765 12.7322C79.0765 8.90632 76.4349 5 69.3448 5C62.2548 5 59.6132 8.90057 59.6132 12.7322V23.2678C59.6132 27.0937 62.2548 31 69.3448 31C76.4349 31 79.0765 27.0994 79.0765 23.2678V12.7322ZM97.0303 30.6151H104.006V5.37914H98.6141V22.768L90.3577 5.37914H83.4163V30.6151H88.8082V14.019L97.0303 30.6151ZM113.772 30.6151V12.1635H108.34V30.6151H113.772ZM113.772 9.85418V5.38489H108.34V9.85418H113.772ZM133.31 5.37914H125.768L118.112 30.6151H123.995L125.35 25.692H133.761L135.116 30.6151H141L133.31 5.37914Z" fill="#2E3192"/>
</svg>
