<svg width="1435" height="3068" viewBox="0 0 1435 3068" fill="none" xmlns="http://www.w3.org/2000/svg">
<path d="M954.984 1735C955.308 1735 955.611 1735.16 955.799 1735.42L1434.02 2407.83C1434.3 2408.22 1434.26 2408.75 1433.93 2409.1L809.5 3067.69C809.311 3067.89 809.049 3068 808.774 3068H420.333C419.454 3068 419.003 3066.95 419.609 3066.31L1045.43 2409.1C1045.76 2408.75 1045.8 2408.22 1045.52 2407.83L569.697 1736.58C569.228 1735.92 569.701 1735 570.513 1735H954.984Z" fill="url(#paint0_linear_436_1048)" fill-opacity="0.2"/>
<path d="M428.854 0C428.469 0 428.118 0.221287 427.951 0.568883L0.247073 895.724C0.0940326 896.044 0.122272 896.421 0.321271 896.715L567.499 1734.56C567.685 1734.84 567.995 1735 568.327 1735H957.119C957.92 1735 958.396 1734.1 957.948 1733.44L393.521 896.708C393.325 896.418 393.295 896.047 393.442 895.729L807.763 1.42033C808.07 0.757588 807.587 0 806.856 0H428.854Z" fill="url(#paint1_linear_436_1048)" fill-opacity="0.2"/>
<defs>
<linearGradient id="paint0_linear_436_1048" x1="711.279" y1="1713.11" x2="949.708" y2="3081.51" gradientUnits="userSpaceOnUse">
<stop stop-color="#01B5E2"/>
<stop offset="0.420041" stop-color="#5ED0EC"/>
<stop offset="0.577759" stop-color="#7578E8"/>
<stop offset="1" stop-color="#2A2B56"/>
</linearGradient>
<linearGradient id="paint1_linear_436_1048" x1="665.721" y1="-28.4871" x2="269.893" y2="1716.88" gradientUnits="userSpaceOnUse">
<stop stop-color="#01B5E2"/>
<stop offset="0.420041" stop-color="#5ED0EC"/>
<stop offset="0.577759" stop-color="#7578E8"/>
<stop offset="1" stop-color="#2A2B56"/>
</linearGradient>
</defs>
</svg>
