<svg width="182" height="192" viewBox="0 0 182 192" fill="none" xmlns="http://www.w3.org/2000/svg">
<path d="M92.5438 0.965241L92.7862 0.527906L92.5438 0.965241ZM92.5438 0.965241C91.4244 0.344917 90.0566 0.344917 88.9371 0.965249L86.7717 2.16524L86.5294 1.7279L82.1986 4.1279L82.4409 4.56524L78.1101 6.96523L77.8678 6.5279L73.537 8.9279L73.7793 9.36523L69.4485 11.7652L69.2062 11.3279L64.8754 13.7279L65.1177 14.1652L60.7869 16.5652L60.5446 16.1279L56.2138 18.5279L56.4561 18.9652L52.1253 21.3652L51.883 20.9279L47.5522 23.3279L47.7945 23.7652L43.4637 26.1652L43.2214 25.7279L38.8906 28.1279L39.1329 28.5652L34.8021 30.9652L34.5598 30.5279L30.229 32.9279L30.4713 33.3652L26.1405 35.7652L25.8982 35.3279L21.5674 37.7279L21.8097 38.1652L17.4789 40.5652L17.2366 40.1279L12.9058 42.5279L13.1481 42.9652L8.81733 45.3652L8.57497 44.9279L4.24416 47.3279L4.48652 47.7652L2.32114 48.9652L2.32088 48.9653C1.18885 49.5918 0.5 50.7546 0.5 52V54.4444H0V59.3333H0.5V64.2222H0V69.1111H0.5V74H0V78.8888H0.5V83.7777H0V88.6666H0.5V93.5555H0V98.4444H0.5V103.333H0V108.222H0.5V113.111H0V118H0.5V122.889H0V127.778H0.5V132.667H0V137.556H0.5V140C0.5 141.245 1.18885 142.408 2.32088 143.035L2.32114 143.035L4.48654 144.235L4.24418 144.672L8.57498 147.072L8.81734 146.635L13.1481 149.035L12.9058 149.472L17.2366 151.872L17.4789 151.435L21.8097 153.835L21.5674 154.272L25.8982 156.672L26.1405 156.235L30.4713 158.635L30.229 159.072L34.5598 161.472L34.8021 161.035L39.1329 163.435L38.8906 163.872L43.2214 166.272L43.4637 165.835L47.7945 168.235L47.5522 168.672L51.883 171.072L52.1253 170.635L56.4561 173.035L56.2138 173.472L60.5446 175.872L60.7869 175.435L65.1177 177.835L64.8754 178.272L69.2062 180.672L69.4485 180.235L73.7793 182.635L73.537 183.072L77.8678 185.472L78.1101 185.035L82.4409 187.435L82.1986 187.872L86.5294 190.272L86.7717 189.835L88.9372 191.035C89.0757 191.111 89.2176 191.179 89.3621 191.236L89.1768 191.701C89.51 191.834 89.8562 191.922 90.2081 191.967L90.2707 191.471C90.4262 191.49 90.5831 191.5 90.7407 191.5C90.8983 191.5 91.0552 191.49 91.2107 191.471L91.2732 191.967C91.6252 191.922 91.9713 191.834 92.3045 191.701L92.1192 191.236C92.2638 191.179 92.4057 191.111 92.5442 191.035L94.7096 189.835L94.952 190.272L99.2828 187.872L99.0404 187.435L103.371 185.035L103.614 185.472L107.944 183.072L107.702 182.635L112.033 180.235L112.275 180.672L116.606 178.272L116.364 177.835L120.694 175.435L120.937 175.872L125.268 173.472L125.025 173.035L129.356 170.635L129.598 171.072L133.929 168.672L133.687 168.235L138.018 165.835L138.26 166.272L142.591 163.872L142.348 163.435L146.679 161.035L146.922 161.472L151.252 159.072L151.01 158.635L155.341 156.235L155.583 156.672L159.914 154.272L159.672 153.835L164.002 151.435L164.245 151.872L168.576 149.472L168.333 149.035L172.664 146.635L172.906 147.072L177.237 144.672L176.995 144.235L179.16 143.035L179.16 143.035C180.293 142.408 180.981 141.245 180.981 140V137.556H181.481V132.667H180.981V127.778H181.481V122.889H180.981V118H181.481V113.111H180.981V108.222H181.481V103.333H180.981V98.4444H181.481V93.5555H180.981V88.6666H181.481V83.7777H180.981V78.8888H181.481V74H180.981V69.1111H181.481V64.2222H180.981V59.3333H181.481V54.4444H180.981V52C180.981 51.6878 180.938 51.3811 180.855 51.0869L181.337 50.9518C181.146 50.2718 180.773 49.651 180.255 49.1549L179.909 49.516C179.688 49.3047 179.438 49.1189 179.16 48.9653L179.402 48.5278L179.16 48.9652L176.994 47.7652L177.237 47.3278L172.906 44.9278L172.664 45.3652L168.333 42.9652L168.575 42.5278L164.244 40.1279L164.002 40.5652L159.671 38.1652L159.914 37.7279L155.583 35.3279L155.34 35.7652L151.01 33.3652L151.252 32.9279L146.921 30.5279L146.679 30.9652L142.348 28.5652L142.59 28.1279L138.26 25.7279L138.017 26.1652L133.686 23.7652L133.929 23.3279L129.598 20.9279L129.356 21.3652L125.025 18.9652L125.267 18.5279L120.936 16.1279L120.694 16.5652L116.363 14.1652L116.606 13.7279L112.275 11.3279L112.032 11.7652L107.702 9.36523L107.944 8.9279L103.613 6.5279L103.371 6.96524L99.0401 4.56524L99.2824 4.12791L94.9516 1.72792L94.7093 2.16525L92.5438 0.965241Z" stroke="#7D53F8" stroke-dasharray="5 5"/>
</svg>
