<svg width="103" height="89" viewBox="0 0 103 89" fill="none" xmlns="http://www.w3.org/2000/svg">
<circle cx="100.996" cy="1.93478" r="1.93478" transform="rotate(90 100.996 1.93478)" fill="#2E318E"/>
<circle cx="100.996" cy="18.9607" r="1.93478" transform="rotate(90 100.996 18.9607)" fill="#2E318E"/>
<circle cx="100.996" cy="35.987" r="1.93478" transform="rotate(90 100.996 35.987)" fill="#2E318E"/>
<circle cx="100.996" cy="53.0129" r="1.93478" transform="rotate(90 100.996 53.0129)" fill="#2E318E"/>
<circle cx="100.996" cy="70.0393" r="1.93478" transform="rotate(90 100.996 70.0393)" fill="#2E318E"/>
<circle cx="100.996" cy="87.0652" r="1.93478" transform="rotate(90 100.996 87.0652)" fill="#2E318E"/>
<circle cx="87.0657" cy="1.93478" r="1.93478" transform="rotate(90 87.0657 1.93478)" fill="#2E318E"/>
<circle cx="87.0657" cy="18.9607" r="1.93478" transform="rotate(90 87.0657 18.9607)" fill="#2E318E"/>
<circle cx="87.0657" cy="35.987" r="1.93478" transform="rotate(90 87.0657 35.987)" fill="#2E318E"/>
<circle cx="87.0657" cy="53.0129" r="1.93478" transform="rotate(90 87.0657 53.0129)" fill="#2E318E"/>
<circle cx="87.0657" cy="70.0393" r="1.93478" transform="rotate(90 87.0657 70.0393)" fill="#2E318E"/>
<circle cx="87.0657" cy="87.0652" r="1.93478" transform="rotate(90 87.0657 87.0652)" fill="#2E318E"/>
<circle cx="72.3611" cy="1.93478" r="1.93478" transform="rotate(90 72.3611 1.93478)" fill="#2E318E"/>
<circle cx="72.3611" cy="18.9607" r="1.93478" transform="rotate(90 72.3611 18.9607)" fill="#2E318E"/>
<circle cx="72.3611" cy="35.987" r="1.93478" transform="rotate(90 72.3611 35.987)" fill="#2E318E"/>
<circle cx="72.3611" cy="53.0129" r="1.93478" transform="rotate(90 72.3611 53.0129)" fill="#2E318E"/>
<circle cx="72.3611" cy="70.0393" r="1.93478" transform="rotate(90 72.3611 70.0393)" fill="#2E318E"/>
<circle cx="72.3611" cy="87.0652" r="1.93478" transform="rotate(90 72.3611 87.0652)" fill="#2E318E"/>
<circle cx="58.4305" cy="1.93478" r="1.93478" transform="rotate(90 58.4305 1.93478)" fill="#2E318E"/>
<circle cx="58.4305" cy="18.9607" r="1.93478" transform="rotate(90 58.4305 18.9607)" fill="#2E318E"/>
<circle cx="58.4305" cy="35.987" r="1.93478" transform="rotate(90 58.4305 35.987)" fill="#2E318E"/>
<circle cx="58.4305" cy="53.0129" r="1.93478" transform="rotate(90 58.4305 53.0129)" fill="#2E318E"/>
<circle cx="58.4305" cy="70.0393" r="1.93478" transform="rotate(90 58.4305 70.0393)" fill="#2E318E"/>
<circle cx="58.4305" cy="87.0652" r="1.93478" transform="rotate(90 58.4305 87.0652)" fill="#2E318E"/>
<circle cx="44.5003" cy="1.93478" r="1.93478" transform="rotate(90 44.5003 1.93478)" fill="#2E318E"/>
<circle cx="44.5003" cy="18.9607" r="1.93478" transform="rotate(90 44.5003 18.9607)" fill="#2E318E"/>
<circle cx="44.5003" cy="35.987" r="1.93478" transform="rotate(90 44.5003 35.987)" fill="#2E318E"/>
<circle cx="44.5003" cy="53.0129" r="1.93478" transform="rotate(90 44.5003 53.0129)" fill="#2E318E"/>
<circle cx="44.5003" cy="70.0393" r="1.93478" transform="rotate(90 44.5003 70.0393)" fill="#2E318E"/>
<circle cx="44.5003" cy="87.0652" r="1.93478" transform="rotate(90 44.5003 87.0652)" fill="#2E318E"/>
<circle cx="30.5701" cy="1.93478" r="1.93478" transform="rotate(90 30.5701 1.93478)" fill="#2E318E"/>
<circle cx="30.5701" cy="18.9607" r="1.93478" transform="rotate(90 30.5701 18.9607)" fill="#2E318E"/>
<circle cx="30.5701" cy="35.987" r="1.93478" transform="rotate(90 30.5701 35.987)" fill="#2E318E"/>
<circle cx="30.5701" cy="53.0129" r="1.93478" transform="rotate(90 30.5701 53.0129)" fill="#2E318E"/>
<circle cx="30.5701" cy="70.0393" r="1.93478" transform="rotate(90 30.5701 70.0393)" fill="#2E318E"/>
<circle cx="30.5701" cy="87.0652" r="1.93478" transform="rotate(90 30.5701 87.0652)" fill="#2E318E"/>
<circle cx="15.8655" cy="1.93478" r="1.93478" transform="rotate(90 15.8655 1.93478)" fill="#2E318E"/>
<circle cx="15.8655" cy="18.9607" r="1.93478" transform="rotate(90 15.8655 18.9607)" fill="#2E318E"/>
<circle cx="15.8655" cy="35.987" r="1.93478" transform="rotate(90 15.8655 35.987)" fill="#2E318E"/>
<circle cx="15.8655" cy="53.0129" r="1.93478" transform="rotate(90 15.8655 53.0129)" fill="#2E318E"/>
<circle cx="15.8655" cy="70.0393" r="1.93478" transform="rotate(90 15.8655 70.0393)" fill="#2E318E"/>
<circle cx="15.8655" cy="87.0652" r="1.93478" transform="rotate(90 15.8655 87.0652)" fill="#2E318E"/>
<circle cx="1.93485" cy="1.93478" r="1.93478" transform="rotate(90 1.93485 1.93478)" fill="#2E318E"/>
<circle cx="1.93485" cy="18.9607" r="1.93478" transform="rotate(90 1.93485 18.9607)" fill="#2E318E"/>
<circle cx="1.93485" cy="35.987" r="1.93478" transform="rotate(90 1.93485 35.987)" fill="#2E318E"/>
<circle cx="1.93485" cy="53.0129" r="1.93478" transform="rotate(90 1.93485 53.0129)" fill="#2E318E"/>
<circle cx="1.93485" cy="70.0393" r="1.93478" transform="rotate(90 1.93485 70.0393)" fill="#2E318E"/>
<circle cx="1.93485" cy="87.0652" r="1.93478" transform="rotate(90 1.93485 87.0652)" fill="#2E318E"/>
</svg>
