<svg width="1183" height="610" viewBox="0 0 1183 610" fill="none" xmlns="http://www.w3.org/2000/svg">
<g clip-path="url(#clip0_368_1101)">
<g filter="url(#filter0_d_368_1101)">
<rect x="21" y="20" width="1140" height="566" rx="30" fill="white"/>
</g>
</g>
<mask id="mask0_368_1101" style="mask-type:alpha" maskUnits="userSpaceOnUse" x="22" y="20" width="1139" height="566">
<rect x="22" y="20" width="1139" height="566" rx="31" fill="#0E092A"/>
</mask>
<g mask="url(#mask0_368_1101)">
<rect opacity="0.07" x="-30.6152" y="566.875" width="750.447" height="72.4563" transform="rotate(-75 -30.6152 566.875)" fill="#C7D3F4"/>
<rect opacity="0.07" x="43.6289" y="657.618" width="833.346" height="28.6232" transform="rotate(-75 43.6289 657.618)" fill="#C7D3F4"/>
<rect opacity="0.07" x="946.209" y="603.737" width="619.529" height="101.861" transform="rotate(-75 946.209 603.737)" fill="#C7D3F4"/>
<rect opacity="0.07" x="1033.97" y="714.741" width="807.519" height="18.0783" transform="rotate(-75 1033.97 714.741)" fill="#C7D3F4"/>
</g>
<path d="M560.932 509V504.176L561.346 505.292L555.928 496.4H557.854L562.408 503.906H561.364L565.936 496.4H567.718L562.318 505.292L562.714 504.176V509H560.932ZM572.673 509.108C571.857 509.108 571.137 508.958 570.513 508.658C569.901 508.358 569.421 507.902 569.073 507.29C568.737 506.666 568.569 505.886 568.569 504.95V499.46H570.297V504.752C570.297 505.688 570.519 506.39 570.963 506.858C571.419 507.326 572.055 507.56 572.871 507.56C573.471 507.56 573.993 507.44 574.437 507.2C574.881 506.948 575.223 506.588 575.463 506.12C575.703 505.64 575.823 505.064 575.823 504.392V499.46H577.551V509H575.913V506.426L576.183 507.11C575.871 507.746 575.403 508.238 574.779 508.586C574.155 508.934 573.453 509.108 572.673 509.108ZM585.899 509.108C585.083 509.108 584.345 508.928 583.685 508.568C583.037 508.196 582.521 507.65 582.137 506.93C581.765 506.21 581.579 505.31 581.579 504.23C581.579 503.15 581.771 502.25 582.155 501.53C582.551 500.81 583.073 500.27 583.721 499.91C584.381 499.55 585.107 499.37 585.899 499.37C586.835 499.37 587.663 499.574 588.383 499.982C589.103 500.39 589.673 500.96 590.093 501.692C590.513 502.412 590.723 503.258 590.723 504.23C590.723 505.202 590.513 506.054 590.093 506.786C589.673 507.518 589.103 508.088 588.383 508.496C587.663 508.904 586.835 509.108 585.899 509.108ZM580.841 509V495.644H582.569V501.998L582.389 504.212L582.497 506.426V509H580.841ZM585.755 507.596C586.367 507.596 586.913 507.458 587.393 507.182C587.885 506.906 588.269 506.516 588.545 506.012C588.833 505.496 588.977 504.902 588.977 504.23C588.977 503.546 588.833 502.958 588.545 502.466C588.269 501.962 587.885 501.572 587.393 501.296C586.913 501.02 586.367 500.882 585.755 500.882C585.155 500.882 584.609 501.02 584.117 501.296C583.637 501.572 583.253 501.962 582.965 502.466C582.689 502.958 582.551 503.546 582.551 504.23C582.551 504.902 582.689 505.496 582.965 506.012C583.253 506.516 583.637 506.906 584.117 507.182C584.609 507.458 585.155 507.596 585.755 507.596ZM597.197 509.108C596.237 509.108 595.385 508.898 594.641 508.478C593.897 508.058 593.309 507.482 592.877 506.75C592.445 506.006 592.229 505.166 592.229 504.23C592.229 503.282 592.445 502.442 592.877 501.71C593.309 500.978 593.897 500.408 594.641 500C595.385 499.58 596.237 499.37 597.197 499.37C598.145 499.37 598.991 499.58 599.735 500C600.491 500.408 601.079 500.978 601.499 501.71C601.931 502.43 602.147 503.27 602.147 504.23C602.147 505.178 601.931 506.018 601.499 506.75C601.079 507.482 600.491 508.058 599.735 508.478C598.991 508.898 598.145 509.108 597.197 509.108ZM597.197 507.596C597.809 507.596 598.355 507.458 598.835 507.182C599.327 506.906 599.711 506.516 599.987 506.012C600.263 505.496 600.401 504.902 600.401 504.23C600.401 503.546 600.263 502.958 599.987 502.466C599.711 501.962 599.327 501.572 598.835 501.296C598.355 501.02 597.809 500.882 597.197 500.882C596.585 500.882 596.039 501.02 595.559 501.296C595.079 501.572 594.695 501.962 594.407 502.466C594.119 502.958 593.975 503.546 593.975 504.23C593.975 504.902 594.119 505.496 594.407 506.012C594.695 506.516 595.079 506.906 595.559 507.182C596.039 507.458 596.585 507.596 597.197 507.596ZM604.536 509V499.46H606.192V502.052L606.03 501.404C606.294 500.744 606.738 500.24 607.362 499.892C607.986 499.544 608.754 499.37 609.666 499.37V501.044C609.594 501.032 609.522 501.026 609.45 501.026C609.39 501.026 609.33 501.026 609.27 501.026C608.346 501.026 607.614 501.302 607.074 501.854C606.534 502.406 606.264 503.204 606.264 504.248V509H604.536ZM611.796 509V499.46H613.524V509H611.796ZM612.66 497.624C612.324 497.624 612.042 497.516 611.814 497.3C611.598 497.084 611.49 496.82 611.49 496.508C611.49 496.184 611.598 495.914 611.814 495.698C612.042 495.482 612.324 495.374 612.66 495.374C612.996 495.374 613.272 495.482 613.488 495.698C613.716 495.902 613.83 496.16 613.83 496.472C613.83 496.796 613.722 497.072 613.506 497.3C613.29 497.516 613.008 497.624 612.66 497.624ZM619.56 509.108C618.768 509.108 618.012 509 617.292 508.784C616.584 508.568 616.026 508.304 615.618 507.992L616.338 506.624C616.746 506.9 617.25 507.134 617.85 507.326C618.45 507.518 619.062 507.614 619.686 507.614C620.49 507.614 621.066 507.5 621.414 507.272C621.774 507.044 621.954 506.726 621.954 506.318C621.954 506.018 621.846 505.784 621.63 505.616C621.414 505.448 621.126 505.322 620.766 505.238C620.418 505.154 620.028 505.082 619.596 505.022C619.164 504.95 618.732 504.866 618.3 504.77C617.868 504.662 617.472 504.518 617.112 504.338C616.752 504.146 616.464 503.888 616.248 503.564C616.032 503.228 615.924 502.784 615.924 502.232C615.924 501.656 616.086 501.152 616.41 500.72C616.734 500.288 617.19 499.958 617.778 499.73C618.378 499.49 619.086 499.37 619.902 499.37C620.526 499.37 621.156 499.448 621.792 499.604C622.44 499.748 622.968 499.958 623.376 500.234L622.638 501.602C622.206 501.314 621.756 501.116 621.288 501.008C620.82 500.9 620.352 500.846 619.884 500.846C619.128 500.846 618.564 500.972 618.192 501.224C617.82 501.464 617.634 501.776 617.634 502.16C617.634 502.484 617.742 502.736 617.958 502.916C618.186 503.084 618.474 503.216 618.822 503.312C619.182 503.408 619.578 503.492 620.01 503.564C620.442 503.624 620.874 503.708 621.306 503.816C621.738 503.912 622.128 504.05 622.476 504.23C622.836 504.41 623.124 504.662 623.34 504.986C623.568 505.31 623.682 505.742 623.682 506.282C623.682 506.858 623.514 507.356 623.178 507.776C622.842 508.196 622.368 508.526 621.756 508.766C621.144 508.994 620.412 509.108 619.56 509.108ZM630.935 499.37C631.715 499.37 632.399 499.52 632.987 499.82C633.587 500.12 634.055 500.576 634.391 501.188C634.727 501.8 634.895 502.574 634.895 503.51V509H633.167V503.708C633.167 502.784 632.939 502.088 632.483 501.62C632.039 501.152 631.409 500.918 630.593 500.918C629.981 500.918 629.447 501.038 628.991 501.278C628.535 501.518 628.181 501.872 627.929 502.34C627.689 502.808 627.569 503.39 627.569 504.086V509H625.841V495.644H627.569V502.034L627.227 501.35C627.539 500.726 628.019 500.24 628.667 499.892C629.315 499.544 630.071 499.37 630.935 499.37Z" fill="white"/>
<defs>
<filter id="filter0_d_368_1101" x="-14" y="-13" width="1210" height="636" filterUnits="userSpaceOnUse" color-interpolation-filters="sRGB">
<feFlood flood-opacity="0" result="BackgroundImageFix"/>
<feColorMatrix in="SourceAlpha" type="matrix" values="0 0 0 0 0 0 0 0 0 0 0 0 0 0 0 0 0 0 127 0" result="hardAlpha"/>
<feOffset dy="2"/>
<feGaussianBlur stdDeviation="17.5"/>
<feComposite in2="hardAlpha" operator="out"/>
<feColorMatrix type="matrix" values="0 0 0 0 0 0 0 0 0 0 0 0 0 0 0 0 0 0 0.08 0"/>
<feBlend mode="normal" in2="BackgroundImageFix" result="effect1_dropShadow_368_1101"/>
<feBlend mode="normal" in="SourceGraphic" in2="effect1_dropShadow_368_1101" result="shape"/>
</filter>
<clipPath id="clip0_368_1101">
<rect width="1140" height="566" fill="white" transform="translate(21 20)"/>
</clipPath>
</defs>
</svg>
