<svg width="123" height="106" viewBox="0 0 123 106" fill="none" xmlns="http://www.w3.org/2000/svg">
<circle cx="2.30435" cy="103.696" r="2.30435" transform="rotate(-90 2.30435 103.696)" fill="#00C5DE"/>
<circle cx="2.30435" cy="83.4173" r="2.30435" transform="rotate(-90 2.30435 83.4173)" fill="#00C5DE"/>
<circle cx="2.30435" cy="63.1393" r="2.30435" transform="rotate(-90 2.30435 63.1393)" fill="#00C5DE"/>
<circle cx="2.30435" cy="42.8609" r="2.30435" transform="rotate(-90 2.30435 42.8609)" fill="#00C5DE"/>
<circle cx="2.30435" cy="22.5826" r="2.30435" transform="rotate(-90 2.30435 22.5826)" fill="#00C5DE"/>
<circle cx="2.30435" cy="2.3043" r="2.30435" transform="rotate(-90 2.30435 2.3043)" fill="#00C5DE"/>
<circle cx="18.8952" cy="103.696" r="2.30435" transform="rotate(-90 18.8952 103.696)" fill="#00C5DE"/>
<circle cx="18.8952" cy="83.4173" r="2.30435" transform="rotate(-90 18.8952 83.4173)" fill="#00C5DE"/>
<circle cx="18.8952" cy="63.1393" r="2.30435" transform="rotate(-90 18.8952 63.1393)" fill="#00C5DE"/>
<circle cx="18.8952" cy="42.8609" r="2.30435" transform="rotate(-90 18.8952 42.8609)" fill="#00C5DE"/>
<circle cx="18.8952" cy="22.5826" r="2.30435" transform="rotate(-90 18.8952 22.5826)" fill="#00C5DE"/>
<circle cx="18.8952" cy="2.3043" r="2.30435" transform="rotate(-90 18.8952 2.3043)" fill="#00C5DE"/>
<circle cx="36.4088" cy="103.696" r="2.30435" transform="rotate(-90 36.4088 103.696)" fill="#00C5DE"/>
<circle cx="36.4088" cy="83.4173" r="2.30435" transform="rotate(-90 36.4088 83.4173)" fill="#00C5DE"/>
<circle cx="36.4088" cy="63.1393" r="2.30435" transform="rotate(-90 36.4088 63.1393)" fill="#00C5DE"/>
<circle cx="36.4088" cy="42.8607" r="2.30435" transform="rotate(-90 36.4088 42.8607)" fill="#00C5DE"/>
<circle cx="36.4088" cy="22.5826" r="2.30435" transform="rotate(-90 36.4088 22.5826)" fill="#00C5DE"/>
<circle cx="36.4088" cy="2.3043" r="2.30435" transform="rotate(-90 36.4088 2.3043)" fill="#00C5DE"/>
<circle cx="53.0003" cy="103.696" r="2.30435" transform="rotate(-90 53.0003 103.696)" fill="#00C5DE"/>
<circle cx="53.0003" cy="83.4173" r="2.30435" transform="rotate(-90 53.0003 83.4173)" fill="#00C5DE"/>
<circle cx="53.0003" cy="63.1393" r="2.30435" transform="rotate(-90 53.0003 63.1393)" fill="#00C5DE"/>
<circle cx="53.0003" cy="42.8607" r="2.30435" transform="rotate(-90 53.0003 42.8607)" fill="#00C5DE"/>
<circle cx="53.0003" cy="22.5826" r="2.30435" transform="rotate(-90 53.0003 22.5826)" fill="#00C5DE"/>
<circle cx="53.0003" cy="2.3043" r="2.30435" transform="rotate(-90 53.0003 2.3043)" fill="#00C5DE"/>
<circle cx="69.5915" cy="103.696" r="2.30435" transform="rotate(-90 69.5915 103.696)" fill="#00C5DE"/>
<circle cx="69.5915" cy="83.4173" r="2.30435" transform="rotate(-90 69.5915 83.4173)" fill="#00C5DE"/>
<circle cx="69.5915" cy="63.1393" r="2.30435" transform="rotate(-90 69.5915 63.1393)" fill="#00C5DE"/>
<circle cx="69.5915" cy="42.8607" r="2.30435" transform="rotate(-90 69.5915 42.8607)" fill="#00C5DE"/>
<circle cx="69.5915" cy="22.5826" r="2.30435" transform="rotate(-90 69.5915 22.5826)" fill="#00C5DE"/>
<circle cx="69.5915" cy="2.3043" r="2.30435" transform="rotate(-90 69.5915 2.3043)" fill="#00C5DE"/>
<circle cx="86.1823" cy="103.696" r="2.30435" transform="rotate(-90 86.1823 103.696)" fill="#00C5DE"/>
<circle cx="86.1823" cy="83.4173" r="2.30435" transform="rotate(-90 86.1823 83.4173)" fill="#00C5DE"/>
<circle cx="86.1823" cy="63.1393" r="2.30435" transform="rotate(-90 86.1823 63.1393)" fill="#00C5DE"/>
<circle cx="86.1823" cy="42.8607" r="2.30435" transform="rotate(-90 86.1823 42.8607)" fill="#00C5DE"/>
<circle cx="86.1823" cy="22.5826" r="2.30435" transform="rotate(-90 86.1823 22.5826)" fill="#00C5DE"/>
<circle cx="86.1823" cy="2.3043" r="2.30435" transform="rotate(-90 86.1823 2.3043)" fill="#00C5DE"/>
<circle cx="103.696" cy="103.696" r="2.30435" transform="rotate(-90 103.696 103.696)" fill="#00C5DE"/>
<circle cx="103.696" cy="83.4173" r="2.30435" transform="rotate(-90 103.696 83.4173)" fill="#00C5DE"/>
<circle cx="103.696" cy="63.1393" r="2.30435" transform="rotate(-90 103.696 63.1393)" fill="#00C5DE"/>
<circle cx="103.695" cy="42.8609" r="2.30435" transform="rotate(-90 103.695 42.8609)" fill="#00C5DE"/>
<circle cx="103.696" cy="22.5826" r="2.30435" transform="rotate(-90 103.696 22.5826)" fill="#00C5DE"/>
<circle cx="103.696" cy="2.3043" r="2.30435" transform="rotate(-90 103.696 2.3043)" fill="#00C5DE"/>
<circle cx="120.287" cy="103.696" r="2.30435" transform="rotate(-90 120.287 103.696)" fill="#00C5DE"/>
<circle cx="120.287" cy="83.4173" r="2.30435" transform="rotate(-90 120.287 83.4173)" fill="#00C5DE"/>
<circle cx="120.287" cy="63.1393" r="2.30435" transform="rotate(-90 120.287 63.1393)" fill="#00C5DE"/>
<circle cx="120.287" cy="42.8607" r="2.30435" transform="rotate(-90 120.287 42.8607)" fill="#00C5DE"/>
<circle cx="120.287" cy="22.5826" r="2.30435" transform="rotate(-90 120.287 22.5826)" fill="#00C5DE"/>
<circle cx="120.287" cy="2.3043" r="2.30435" transform="rotate(-90 120.287 2.3043)" fill="#00C5DE"/>
</svg>
