<svg width="1294" height="114" viewBox="0 0 1294 114" fill="none" xmlns="http://www.w3.org/2000/svg">
<path d="M1 26.7725C30.1667 9.93916 110.4 -10.4275 198 42.7725C237.5 75.1058 335.2 130.072 410 91.2725C455.167 79.9391 566.9 60.6725 652.5 74.2725C697.667 75.4392 800.4 70.7725 850 42.7725C899.833 13.6058 1024.1 -29.2275 1122.5 32.7725C1153.17 51.2725 1205.5 78.2725 1293.5 89.2725" stroke="url(#paint0_linear_283_997)" stroke-dasharray="9 9"/>
<path d="M178.566 47.5606L231.735 66.1713L196.113 38.302L194.463 44.1909L181.618 43.0612L178.566 47.5606Z" fill="#5A5DC5"/>
<path d="M231.735 66.1712L187.198 37.2439L143.919 25.316L231.735 66.1712Z" fill="#96E2F5"/>
<path d="M196.114 38.3024L231.736 66.1716L203.806 29.1301L196.114 38.3024Z" fill="#96E2F5"/>
<path d="M647.425 89.3705L698.455 66.3791L652.544 67.4081L655.882 74.1575L646.116 82.8542L647.425 89.3705Z" fill="#5A5DC5"/>
<path d="M698.456 66.3784L645.558 73.1883L606.471 94.9091L698.456 66.3784Z" fill="#96E2F5"/>
<path d="M652.545 67.4076L698.456 66.3785L650.898 53.0065L652.545 67.4076Z" fill="#96E2F5"/>
<path d="M1102.79 36.5802L1153.74 45.7902L1115.15 20.458L1115.44 28.2179L1104.1 30.1814L1102.79 36.5802Z" fill="#5A5DC5"/>
<path d="M1153.74 45.7898L1107.2 21.4798L1066.66 17.9903L1153.74 45.7898Z" fill="#96E2F5"/>
<path d="M1115.15 20.4581L1153.74 45.7902L1119.08 7.02805L1115.15 20.4581Z" fill="#96E2F5"/>
<defs>
<linearGradient id="paint0_linear_283_997" x1="8.5" y1="25.2726" x2="1301" y2="104.273" gradientUnits="userSpaceOnUse">
<stop stop-color="#0AB6E0"/>
<stop offset="0.489583" stop-color="#63BCE9"/>
<stop offset="1" stop-color="#4E519C"/>
</linearGradient>
</defs>
</svg>
