<svg width="20" height="20" viewBox="0 0 20 20" fill="none" xmlns="http://www.w3.org/2000/svg">
<mask id="mask0_441_281" style="mask-type:alpha" maskUnits="userSpaceOnUse" x="5" y="2" width="10" height="16">
<path fill-rule="evenodd" clip-rule="evenodd" d="M9.35292 12.7742C8.29922 12.711 7.28817 12.3355 6.44872 11.6955C6.34455 11.6122 6.23622 11.5288 6.14039 11.4342C5.96685 11.2852 5.85809 11.0746 5.83709 10.8468C5.8161 10.619 5.88456 10.392 6.02793 10.2138C6.14205 10.0366 6.32062 9.91067 6.52593 9.86277C6.73123 9.81486 6.9471 9.84872 7.12789 9.95717C7.21196 10.0005 7.29277 10.0499 7.36958 10.1051C8.13846 10.6531 9.05709 10.9518 10.0013 10.9608C10.9454 10.9697 11.8696 10.6885 12.6487 10.1551C12.7999 10.028 12.9758 9.93382 13.1654 9.87841C13.3402 9.82688 13.5275 9.83692 13.6959 9.90684C13.8642 9.97676 14.0035 10.1023 14.0904 10.2626C14.2074 10.4198 14.2656 10.6131 14.2549 10.8088C14.2443 11.0044 14.1654 11.1902 14.0321 11.3338C13.6031 11.7866 13.0795 12.1391 12.4987 12.3663C11.9366 12.5759 11.3499 12.7126 10.7529 12.773C10.8446 12.8743 10.8862 12.9243 10.9404 12.9813C11.7487 13.8247 12.5613 14.6646 13.3654 15.5113C13.493 15.6363 13.5788 15.7978 13.6108 15.9735C13.6429 16.1492 13.6198 16.3306 13.5446 16.4926C13.4705 16.6681 13.3456 16.8175 13.186 16.9214C13.0263 17.0254 12.8392 17.0792 12.6487 17.0759C12.4279 17.0523 12.2248 16.944 12.0821 16.7738C11.4696 16.1363 10.8487 15.5101 10.2529 14.8605C10.0779 14.6713 9.99456 14.7076 9.84456 14.8717C9.22789 15.5279 8.60707 16.176 7.98207 16.8163C7.86848 16.9496 7.71253 17.0399 7.54033 17.0719C7.36813 17.1039 7.19015 17.0757 7.03623 16.9922C6.86748 16.9075 6.72623 16.7767 6.62887 16.615C6.53151 16.4532 6.48206 16.2672 6.48625 16.0784C6.50538 15.8446 6.61082 15.6263 6.78207 15.4659C7.58207 14.6368 8.37929 13.8059 9.17373 12.9734C9.2279 12.9188 9.27792 12.8601 9.35292 12.7742ZM10.0154 9.88382C9.27817 9.90815 8.55053 9.71112 7.92628 9.31816C7.30203 8.92519 6.8098 8.35428 6.51296 7.67901C6.21612 7.00373 6.1283 6.25503 6.26083 5.5294C6.39336 4.80376 6.74014 4.13445 7.25652 3.60771C7.7729 3.08096 8.43521 2.72093 9.15807 2.574C9.88093 2.42708 10.6312 2.49999 11.3123 2.78335C11.9933 3.06671 12.5739 3.54755 12.9792 4.16386C13.3845 4.78018 13.5959 5.50375 13.5862 6.24132C13.5909 7.19645 13.2185 8.11483 12.5499 8.79689C11.8813 9.47895 10.9704 9.86956 10.0154 9.88382ZM11.7779 6.19008C11.7633 5.84964 11.6489 5.521 11.449 5.2451C11.249 4.9692 10.9723 4.75822 10.6533 4.63844C10.3343 4.51866 9.98709 4.49538 9.65494 4.57148C9.3228 4.64758 9.02042 4.8197 8.7854 5.06642C8.55037 5.31314 8.39307 5.62357 8.33318 5.95901C8.27328 6.29445 8.31342 6.6401 8.44853 6.95292C8.58365 7.26573 8.80778 7.5319 9.09307 7.71825C9.37835 7.90459 9.71215 8.00289 10.0529 8.00092C10.2853 7.99595 10.5144 7.9451 10.727 7.85128C10.9397 7.75746 11.1316 7.62251 11.292 7.45422C11.4523 7.28593 11.5778 7.08762 11.6612 6.87067C11.7446 6.65372 11.7842 6.42242 11.7779 6.19008Z" fill="#E5E5E5"/>
</mask>
<g mask="url(#mask0_441_281)">
<rect width="20" height="20" fill="#E5E5E5"/>
</g>
</svg>
