<svg width="20" height="20" viewBox="0 0 20 20" fill="none" xmlns="http://www.w3.org/2000/svg">
<mask id="mask0_441_118" style="mask-type:alpha" maskUnits="userSpaceOnUse" x="3" y="5" width="15" height="10">
<path fill-rule="evenodd" clip-rule="evenodd" d="M14.3292 6.73835C14.3197 6.73216 14.3113 6.72457 14.3041 6.71584C14.0549 6.48861 13.7631 6.31318 13.4455 6.19974C13.1279 6.08629 12.7909 6.03709 12.4542 6.05501L12.4291 6.00669C12.434 6.00337 12.4399 6.00189 12.4458 6.00252C13.0875 5.86293 13.4666 5.71876 13.5833 5.56251C13.5954 5.53862 13.6008 5.51191 13.5988 5.48522C13.5969 5.45853 13.5877 5.43289 13.5723 5.41101C13.5569 5.38913 13.5358 5.37185 13.5113 5.36104C13.4868 5.35022 13.4599 5.34626 13.4333 5.34959C13.1304 5.3821 12.8325 5.45064 12.5458 5.55376C12.8833 5.34959 13.0125 5.20586 12.9375 5.13086C12.5369 5.16823 12.1609 5.34039 11.8708 5.61919C11.969 5.52087 12.0257 5.38854 12.0291 5.2496C11.8588 5.35989 11.6997 5.48661 11.5541 5.62794C11.3057 5.88813 11.0773 6.1667 10.8708 6.46127L10.8583 6.48294C10.4315 7.12692 10.1107 7.83522 9.90833 8.58085L9.83747 8.63377L9.82496 8.64669C9.54835 8.3182 9.2136 8.04348 8.83746 7.83627C8.32037 7.52384 7.77987 7.2519 7.22079 7.02292C6.55562 6.69681 5.86605 6.42308 5.15831 6.20419C5.1618 6.57334 5.27019 6.93388 5.47087 7.24374C5.67154 7.55361 5.95621 7.80001 6.29164 7.95419V7.96709C6.02922 7.96329 5.7678 8.00013 5.51664 8.07626C5.56664 8.7596 6.07778 9.23113 7.05 9.49086L7.04583 9.50377C6.87135 9.48923 6.69585 9.51465 6.53267 9.57811C6.3695 9.64157 6.22295 9.7414 6.10416 9.87001C6.27135 10.1654 6.52273 10.4043 6.82625 10.5562C7.12977 10.7081 7.47166 10.7661 7.80831 10.7229C7.66723 10.7845 7.53976 10.8734 7.4333 10.9846C7.36341 11.0498 7.31284 11.1331 7.28712 11.2252C7.2614 11.3173 7.26152 11.4147 7.28748 11.5067C7.38862 11.6616 7.53279 11.7835 7.70231 11.8575C7.87183 11.9315 8.05931 11.9544 8.24166 11.9234L8.26663 11.9542L8.25417 11.9667C7.87796 12.3464 7.42262 12.6385 6.92065 12.8222C6.41869 13.0059 5.88241 13.0767 5.34997 13.0296L5.33333 13.0383C4.50617 12.9787 3.72212 12.6464 3.10413 12.0933C3.90814 13.1872 5.01905 14.0175 6.29581 14.4788C7.76622 14.9526 9.34263 14.9889 10.8333 14.5834H10.8583C12.3328 14.1771 13.6401 13.3129 14.5917 12.1154C15.0185 11.5624 15.3212 10.9239 15.4792 10.2433C15.7857 10.284 16.0975 10.2482 16.3868 10.1392C16.6761 10.0301 16.934 9.85118 17.1375 9.61834L17.1291 9.60418C16.6318 9.68502 16.1228 9.65658 15.6375 9.52084V9.44167C15.6375 9.43792 15.6375 9.43792 15.6417 9.44167C16.45 9.355 16.9291 9.10836 17.0833 8.69753C16.5454 8.90516 15.9505 8.91137 15.4083 8.71502C15.287 7.95149 14.9058 7.25324 14.3292 6.73835Z" fill="#E5E5E5"/>
</mask>
<g mask="url(#mask0_441_118)">
<rect width="20" height="20" fill="#E5E5E5"/>
</g>
</svg>
