<svg width="20" height="20" viewBox="0 0 20 20" fill="none" xmlns="http://www.w3.org/2000/svg">
<mask id="mask0_441_434" style="mask-type:alpha" maskUnits="userSpaceOnUse" x="2" y="5" width="16" height="10">
<path fill-rule="evenodd" clip-rule="evenodd" d="M15.7821 11.1296C16.2905 11.6067 16.8321 12.0554 17.2905 12.5808C17.4987 12.8076 17.6805 13.0574 17.8321 13.3254C17.8857 13.3983 17.9197 13.4837 17.9307 13.5734C17.9418 13.6632 17.9295 13.7543 17.8952 13.838C17.8609 13.9217 17.8057 13.9951 17.7348 14.0513C17.6639 14.1074 17.5798 14.1445 17.4905 14.1587H15.2447C14.9795 14.179 14.7131 14.1397 14.4651 14.0437C14.2171 13.9476 13.9937 13.7973 13.8113 13.6037C13.4988 13.3008 13.2113 12.9787 12.9113 12.6662C12.7924 12.5344 12.6565 12.4189 12.5071 12.3229C12.4503 12.2749 12.3831 12.2408 12.3108 12.2234C12.2384 12.206 12.1631 12.2057 12.0906 12.2226C12.0182 12.2395 11.9507 12.273 11.8935 12.3206C11.8363 12.3682 11.7911 12.4285 11.7613 12.4967C11.6025 12.8059 11.521 13.149 11.5238 13.4966C11.4988 14.0021 11.3405 14.135 10.8072 14.1583C9.69431 14.2427 8.58007 14.0139 7.5905 13.4979C6.74194 13.0122 6.0051 12.3534 5.42797 11.5641C4.30374 10.058 3.34804 8.43319 2.57799 6.71874C2.39882 6.33624 2.52796 6.13166 2.96963 6.12416C3.70296 6.11124 4.43631 6.11124 5.17381 6.12416C5.30797 6.12441 5.4387 6.16654 5.54775 6.24467C5.65681 6.32281 5.73874 6.43305 5.78213 6.56C6.17363 7.49503 6.67436 8.38048 7.27383 9.19791C7.42528 9.42628 7.61566 9.62625 7.83632 9.78873C7.88 9.83208 7.93438 9.86308 7.99394 9.87858C8.0535 9.89408 8.11609 9.89353 8.17537 9.87698C8.23464 9.86042 8.28846 9.82848 8.33136 9.78436C8.37427 9.74024 8.40476 9.68553 8.41966 9.62582C8.49343 9.44992 8.53707 9.26287 8.5488 9.07248C8.61759 8.42708 8.60501 7.77559 8.51131 7.13332C8.49327 6.94641 8.41202 6.77125 8.28096 6.63677C8.1499 6.5023 7.97687 6.41657 7.79049 6.39373C7.57799 6.35498 7.60713 6.27832 7.7113 6.16123C7.79163 6.05494 7.89653 5.96968 8.01698 5.91272C8.13743 5.85576 8.26985 5.82881 8.40298 5.83416H10.9446C11.0218 5.83942 11.0971 5.85996 11.1663 5.89461C11.2354 5.92926 11.297 5.97732 11.3474 6.03599C11.3978 6.09465 11.4361 6.16275 11.4599 6.23633C11.4838 6.30991 11.4927 6.3875 11.4863 6.46458V9.15831C11.4806 9.29432 11.5106 9.42946 11.5735 9.55019C11.6364 9.67092 11.7299 9.773 11.8446 9.84623C11.9433 9.86111 12.0441 9.84654 12.1346 9.80437C12.225 9.7622 12.301 9.69431 12.353 9.60916C12.934 8.98613 13.4173 8.27865 13.7863 7.51082C13.9572 7.17957 14.103 6.83498 14.2488 6.49123C14.2866 6.37192 14.3645 6.26937 14.4693 6.20101C14.5741 6.13265 14.6994 6.10271 14.8238 6.11625H17.2655C17.3379 6.1144 17.4104 6.11872 17.4822 6.12917C17.8947 6.19583 18.0071 6.36541 17.8821 6.74916C17.6481 7.33565 17.3187 7.87938 16.9072 8.35832C16.503 8.89666 16.0655 9.41622 15.6613 9.95831C15.2905 10.4529 15.3196 10.7021 15.7821 11.1317V11.1296Z" fill="#E5E5E5"/>
</mask>
<g mask="url(#mask0_441_434)">
<rect width="20" height="20" fill="#E5E5E5"/>
</g>
</svg>
