<svg width="63" height="54" viewBox="0 0 63 54" fill="none" xmlns="http://www.w3.org/2000/svg">
<circle cx="61.1134" cy="1.17076" r="1.17076" transform="rotate(90 61.1134 1.17076)" fill="#00C5DE"/>
<circle cx="61.1134" cy="11.4732" r="1.17076" transform="rotate(90 61.1134 11.4732)" fill="#00C5DE"/>
<circle cx="61.1134" cy="21.7762" r="1.17076" transform="rotate(90 61.1134 21.7762)" fill="#00C5DE"/>
<circle cx="61.1134" cy="32.0787" r="1.17076" transform="rotate(90 61.1134 32.0787)" fill="#00C5DE"/>
<circle cx="61.1134" cy="42.3815" r="1.17076" transform="rotate(90 61.1134 42.3815)" fill="#00C5DE"/>
<circle cx="61.1134" cy="52.6842" r="1.17076" transform="rotate(90 61.1134 52.6842)" fill="#00C5DE"/>
<circle cx="52.6837" cy="1.17076" r="1.17076" transform="rotate(90 52.6837 1.17076)" fill="#00C5DE"/>
<circle cx="52.6837" cy="11.4732" r="1.17076" transform="rotate(90 52.6837 11.4732)" fill="#00C5DE"/>
<circle cx="52.6837" cy="21.7762" r="1.17076" transform="rotate(90 52.6837 21.7762)" fill="#00C5DE"/>
<circle cx="52.6837" cy="32.0787" r="1.17076" transform="rotate(90 52.6837 32.0787)" fill="#00C5DE"/>
<circle cx="52.6837" cy="42.3815" r="1.17076" transform="rotate(90 52.6837 42.3815)" fill="#00C5DE"/>
<circle cx="52.6837" cy="52.6842" r="1.17076" transform="rotate(90 52.6837 52.6842)" fill="#00C5DE"/>
<circle cx="43.7863" cy="1.17076" r="1.17076" transform="rotate(90 43.7863 1.17076)" fill="#00C5DE"/>
<circle cx="43.7863" cy="11.4735" r="1.17076" transform="rotate(90 43.7863 11.4735)" fill="#00C5DE"/>
<circle cx="43.7863" cy="21.7757" r="1.17076" transform="rotate(90 43.7863 21.7757)" fill="#00C5DE"/>
<circle cx="43.7863" cy="32.0787" r="1.17076" transform="rotate(90 43.7863 32.0787)" fill="#00C5DE"/>
<circle cx="43.7863" cy="42.3815" r="1.17076" transform="rotate(90 43.7863 42.3815)" fill="#00C5DE"/>
<circle cx="43.7863" cy="52.6842" r="1.17076" transform="rotate(90 43.7863 52.6842)" fill="#00C5DE"/>
<circle cx="35.3566" cy="1.17076" r="1.17076" transform="rotate(90 35.3566 1.17076)" fill="#00C5DE"/>
<circle cx="35.3566" cy="11.4735" r="1.17076" transform="rotate(90 35.3566 11.4735)" fill="#00C5DE"/>
<circle cx="35.3566" cy="21.7757" r="1.17076" transform="rotate(90 35.3566 21.7757)" fill="#00C5DE"/>
<circle cx="35.3566" cy="32.0787" r="1.17076" transform="rotate(90 35.3566 32.0787)" fill="#00C5DE"/>
<circle cx="35.3566" cy="42.3815" r="1.17076" transform="rotate(90 35.3566 42.3815)" fill="#00C5DE"/>
<circle cx="35.3566" cy="52.6842" r="1.17076" transform="rotate(90 35.3566 52.6842)" fill="#00C5DE"/>
<circle cx="26.9269" cy="1.17076" r="1.17076" transform="rotate(90 26.9269 1.17076)" fill="#00C5DE"/>
<circle cx="26.9269" cy="11.4732" r="1.17076" transform="rotate(90 26.9269 11.4732)" fill="#00C5DE"/>
<circle cx="26.9269" cy="21.7762" r="1.17076" transform="rotate(90 26.9269 21.7762)" fill="#00C5DE"/>
<circle cx="26.9269" cy="32.0787" r="1.17076" transform="rotate(90 26.9269 32.0787)" fill="#00C5DE"/>
<circle cx="26.9269" cy="42.3815" r="1.17076" transform="rotate(90 26.9269 42.3815)" fill="#00C5DE"/>
<circle cx="26.9269" cy="52.6842" r="1.17076" transform="rotate(90 26.9269 52.6842)" fill="#00C5DE"/>
<circle cx="18.4982" cy="1.17076" r="1.17076" transform="rotate(90 18.4982 1.17076)" fill="#00C5DE"/>
<circle cx="18.4982" cy="11.4735" r="1.17076" transform="rotate(90 18.4982 11.4735)" fill="#00C5DE"/>
<circle cx="18.4982" cy="21.7762" r="1.17076" transform="rotate(90 18.4982 21.7762)" fill="#00C5DE"/>
<circle cx="18.4982" cy="32.0787" r="1.17076" transform="rotate(90 18.4982 32.0787)" fill="#00C5DE"/>
<circle cx="18.4982" cy="42.3815" r="1.17076" transform="rotate(90 18.4982 42.3815)" fill="#00C5DE"/>
<circle cx="18.4982" cy="52.6842" r="1.17076" transform="rotate(90 18.4982 52.6842)" fill="#00C5DE"/>
<circle cx="9.59975" cy="1.17076" r="1.17076" transform="rotate(90 9.59975 1.17076)" fill="#00C5DE"/>
<circle cx="9.59975" cy="11.4732" r="1.17076" transform="rotate(90 9.59975 11.4732)" fill="#00C5DE"/>
<circle cx="9.59975" cy="21.7762" r="1.17076" transform="rotate(90 9.59975 21.7762)" fill="#00C5DE"/>
<circle cx="9.59975" cy="32.0787" r="1.17076" transform="rotate(90 9.59975 32.0787)" fill="#00C5DE"/>
<circle cx="9.59975" cy="42.3815" r="1.17076" transform="rotate(90 9.59975 42.3815)" fill="#00C5DE"/>
<circle cx="9.59975" cy="52.6842" r="1.17076" transform="rotate(90 9.59975 52.6842)" fill="#00C5DE"/>
<circle cx="1.17006" cy="1.17076" r="1.17076" transform="rotate(90 1.17006 1.17076)" fill="#00C5DE"/>
<circle cx="1.17006" cy="11.4732" r="1.17076" transform="rotate(90 1.17006 11.4732)" fill="#00C5DE"/>
<circle cx="1.17006" cy="21.7762" r="1.17076" transform="rotate(90 1.17006 21.7762)" fill="#00C5DE"/>
<circle cx="1.17006" cy="32.0787" r="1.17076" transform="rotate(90 1.17006 32.0787)" fill="#00C5DE"/>
<circle cx="1.17006" cy="42.3815" r="1.17076" transform="rotate(90 1.17006 42.3815)" fill="#00C5DE"/>
<circle cx="1.17006" cy="52.6842" r="1.17076" transform="rotate(90 1.17006 52.6842)" fill="#00C5DE"/>
</svg>
