<svg width="125" height="350" viewBox="0 0 125 350" fill="none" xmlns="http://www.w3.org/2000/svg">
<path opacity="0.06" d="M122.25 66.2203L7.7051 0.720371C6.02528 -0.240124 3.97421 -0.240124 2.29438 0.720371L-112.251 66.2203C-113.953 67.192 -115 69.004 -115 70.9583V191.042C-115 192.996 -113.953 194.808 -112.251 195.78L2.29438 261.28C3.13455 261.76 4.06165 262 5 262C5.93835 262 6.86545 261.76 7.70562 261.28L122.251 195.78C123.953 194.808 125 192.996 125 191.042V70.9583C124.999 69.004 123.952 67.192 122.25 66.2203V66.2203Z" fill="#F4F7FF"/>
<path opacity="0.06" d="M98.4648 240.154L34.5103 203.404C33.5724 202.865 32.4273 202.865 31.4894 203.404L-32.4651 240.154C-33.4153 240.699 -34 241.716 -34 242.812V310.187C-34 311.284 -33.4153 312.301 -32.4651 312.846L31.4894 349.596C31.9585 349.865 32.4761 350 33 350C33.5239 350 34.0415 349.865 34.5106 349.596L98.4651 312.846C99.4153 312.301 100 311.284 100 310.187V242.812C99.9997 241.716 99.415 240.699 98.4648 240.154V240.154Z" fill="#F4F7FF"/>
</svg>
