<svg width="158" height="215" viewBox="0 0 158 215" fill="none" xmlns="http://www.w3.org/2000/svg">
<path opacity="0.06" d="M219.281 41.7036L147.691 0.453669C146.641 -0.151223 145.359 -0.151223 144.309 0.453669L72.7182 41.7036C71.6545 42.3156 71 43.4567 71 44.6875V120.312C71 121.543 71.6545 122.684 72.7182 123.296L144.309 164.546C144.834 164.849 145.414 165 146 165C146.586 165 147.166 164.849 147.691 164.546L219.282 123.296C220.345 122.684 221 121.543 221 120.312V44.6875C221 43.4567 220.345 42.3156 219.281 41.7036Z" fill="#F4F7FF"/>
<path opacity="0.06" d="M112.694 121.594L58.2849 90.3437C57.487 89.8854 56.5128 89.8854 55.7148 90.3437L1.30582 121.594C0.497454 122.057 0 122.922 0 123.854V181.146C0 182.078 0.497454 182.943 1.30582 183.406L55.7148 214.656C56.1139 214.886 56.5543 215 57 215C57.4457 215 57.8861 214.886 58.2852 214.656L112.694 183.406C113.503 182.943 114 182.078 114 181.146V123.854C114 122.922 113.502 122.057 112.694 121.594Z" fill="#F4F7FF"/>
</svg>
