<svg width="23" height="35" viewBox="0 0 23 35" fill="none" xmlns="http://www.w3.org/2000/svg">
<ellipse cx="22" cy="1" rx="1" ry="1" transform="rotate(90 22 1)" fill="#00C5DE"/>
<ellipse cx="22" cy="9" rx="1" ry="1" transform="rotate(90 22 9)" fill="#00C5DE"/>
<ellipse cx="22" cy="17" rx="1" ry="1" transform="rotate(90 22 17)" fill="#00C5DE"/>
<ellipse cx="22" cy="26" rx="1" ry="1" transform="rotate(90 22 26)" fill="#00C5DE"/>
<ellipse cx="22" cy="34" rx="1" ry="1" transform="rotate(90 22 34)" fill="#00C5DE"/>
<ellipse cx="15" cy="1" rx="1" ry="1" transform="rotate(90 15 1)" fill="#00C5DE"/>
<ellipse cx="15" cy="9" rx="1" ry="1" transform="rotate(90 15 9)" fill="#00C5DE"/>
<ellipse cx="15" cy="17" rx="1" ry="1" transform="rotate(90 15 17)" fill="#00C5DE"/>
<ellipse cx="15" cy="26" rx="1" ry="1" transform="rotate(90 15 26)" fill="#00C5DE"/>
<ellipse cx="15" cy="34" rx="1" ry="1" transform="rotate(90 15 34)" fill="#00C5DE"/>
<ellipse cx="8" cy="1" rx="1" ry="1" transform="rotate(90 8 1)" fill="#00C5DE"/>
<ellipse cx="8" cy="9" rx="1" ry="1" transform="rotate(90 8 9)" fill="#00C5DE"/>
<ellipse cx="8" cy="17" rx="1" ry="1" transform="rotate(90 8 17)" fill="#00C5DE"/>
<ellipse cx="8" cy="26" rx="1" ry="1" transform="rotate(90 8 26)" fill="#00C5DE"/>
<ellipse cx="8" cy="34" rx="1" ry="1" transform="rotate(90 8 34)" fill="#00C5DE"/>
<ellipse cx="1" cy="1" rx="1" ry="1" transform="rotate(90 1 1)" fill="#00C5DE"/>
<ellipse cx="1" cy="9" rx="1" ry="1" transform="rotate(90 1 9)" fill="#00C5DE"/>
<ellipse cx="1" cy="17" rx="1" ry="1" transform="rotate(90 1 17)" fill="#00C5DE"/>
<ellipse cx="1" cy="26" rx="1" ry="1" transform="rotate(90 1 26)" fill="#00C5DE"/>
<ellipse cx="1" cy="34" rx="1" ry="1" transform="rotate(90 1 34)" fill="#00C5DE"/>
</svg>
